<mxfile host="app.diagrams.net" modified="2023-02-27T04:00:41.094Z" agent="5.0 (Windows NT 10.0; Win64; x64) AppleWebKit/537.36 (KHTML, like Gecko) Chrome/110.0.0.0 Whale/3.19.166.16 Safari/537.36" etag="55wuN6y1jhhUIIgsOeR-" version="20.8.23" type="github" pages="4">
  <diagram id="53IQXVl9icCSp_Kw3Ib1" name="AS-IS">
    <mxGraphModel dx="1634" dy="1769" grid="1" gridSize="10" guides="1" tooltips="1" connect="1" arrows="1" fold="1" page="1" pageScale="1" pageWidth="1100" pageHeight="850" math="0" shadow="0">
      <root>
        <mxCell id="0" />
        <mxCell id="1" parent="0" />
        <mxCell id="uWUnNED6HEl2aK5fdaIb-10" value="" style="verticalLabelPosition=bottom;verticalAlign=top;html=1;strokeWidth=4;shape=mxgraph.flowchart.on-page_reference;plain-blue;gradientColor=none;fillColor=#B5E3Fe;strokeColor=#000000;fontFamily=Gowun Dodum;fontSource=https%3A%2F%2Ffonts.googleapis.com%2Fcss%3Ffamily%3DGowun%2BDodum;rotation=90;container=0;" parent="1" vertex="1">
          <mxGeometry x="662" y="-54" width="30" height="30" as="geometry" />
        </mxCell>
        <mxCell id="uWUnNED6HEl2aK5fdaIb-11" value="" style="verticalLabelPosition=bottom;verticalAlign=top;html=1;strokeWidth=4;shape=mxgraph.flowchart.on-page_reference;plain-blue;gradientColor=none;strokeColor=#000000;fillColor=#B5E3FE;fontFamily=Gowun Dodum;fontSource=https%3A%2F%2Ffonts.googleapis.com%2Fcss%3Ffamily%3DGowun%2BDodum;rotation=90;container=0;" parent="1" vertex="1">
          <mxGeometry x="662" y="505" width="30" height="30" as="geometry" />
        </mxCell>
        <mxCell id="uWUnNED6HEl2aK5fdaIb-109" value="" style="verticalLabelPosition=bottom;verticalAlign=top;html=1;strokeWidth=4;shape=mxgraph.flowchart.on-page_reference;plain-blue;gradientColor=none;strokeColor=#33001A;fillColor=#B5E3FE;fontFamily=Gowun Dodum;fontSource=https%3A%2F%2Ffonts.googleapis.com%2Fcss%3Ffamily%3DGowun%2BDodum;rotation=90;container=0;" parent="1" vertex="1">
          <mxGeometry x="662" y="757" width="30" height="30" as="geometry" />
        </mxCell>
        <mxCell id="uWUnNED6HEl2aK5fdaIb-80" value="" style="edgeStyle=orthogonalEdgeStyle;curved=1;rounded=0;orthogonalLoop=1;jettySize=auto;html=1;endArrow=none;endFill=0;strokeWidth=4;entryX=0;entryY=0.5;entryDx=0;entryDy=0;entryPerimeter=0;fontFamily=Gowun Dodum;fontSource=https%3A%2F%2Ffonts.googleapis.com%2Fcss%3Ffamily%3DGowun%2BDodum;" parent="1" source="uWUnNED6HEl2aK5fdaIb-11" target="uWUnNED6HEl2aK5fdaIb-109" edge="1">
          <mxGeometry relative="1" as="geometry">
            <mxPoint x="677" y="617" as="targetPoint" />
          </mxGeometry>
        </mxCell>
        <mxCell id="uWUnNED6HEl2aK5fdaIb-12" value="" style="edgeStyle=orthogonalEdgeStyle;rounded=0;html=1;jettySize=auto;orthogonalLoop=1;strokeWidth=4;endArrow=none;endFill=0;fontFamily=Gowun Dodum;fontSource=https%3A%2F%2Ffonts.googleapis.com%2Fcss%3Ffamily%3DGowun%2BDodum;" parent="1" target="uWUnNED6HEl2aK5fdaIb-10" edge="1">
          <mxGeometry x="677" y="-124" as="geometry">
            <mxPoint x="677" y="-166" as="sourcePoint" />
          </mxGeometry>
        </mxCell>
        <mxCell id="uWUnNED6HEl2aK5fdaIb-15" value="" style="verticalLabelPosition=bottom;verticalAlign=top;html=1;strokeWidth=4;shape=mxgraph.flowchart.on-page_reference;plain-purple;gradientColor=none;strokeColor=#000000;fillColor=#E1D5E7;fontFamily=Gowun Dodum;fontColor=#e1d5e7;fontSource=https%3A%2F%2Ffonts.googleapis.com%2Fcss%3Ffamily%3DGowun%2BDodum;rotation=90;container=0;" parent="1" vertex="1">
          <mxGeometry x="577" y="24" width="30" height="30" as="geometry" />
        </mxCell>
        <mxCell id="uWUnNED6HEl2aK5fdaIb-9" style="edgeStyle=orthogonalEdgeStyle;curved=1;rounded=0;html=1;exitX=1;exitY=0.5;exitPerimeter=0;entryX=0;entryY=0.5;entryPerimeter=0;endArrow=blockThin;endFill=0;jettySize=auto;orthogonalLoop=1;strokeWidth=4;fontSize=15;fontFamily=Gowun Dodum;fontSource=https%3A%2F%2Ffonts.googleapis.com%2Fcss%3Ffamily%3DGowun%2BDodum;" parent="1" source="uWUnNED6HEl2aK5fdaIb-10" target="uWUnNED6HEl2aK5fdaIb-15" edge="1">
          <mxGeometry relative="1" as="geometry" />
        </mxCell>
        <mxCell id="uWUnNED6HEl2aK5fdaIb-17" value="" style="verticalLabelPosition=bottom;verticalAlign=top;html=1;strokeWidth=4;shape=mxgraph.flowchart.on-page_reference;plain-purple;gradientColor=none;strokeColor=#000000;fillColor=#E1D5E7;fontFamily=Gowun Dodum;fontSource=https%3A%2F%2Ffonts.googleapis.com%2Fcss%3Ffamily%3DGowun%2BDodum;rotation=90;container=0;" parent="1" vertex="1">
          <mxGeometry x="577" y="293" width="30" height="30" as="geometry" />
        </mxCell>
        <mxCell id="uWUnNED6HEl2aK5fdaIb-14" style="edgeStyle=orthogonalEdgeStyle;curved=1;rounded=0;html=1;exitX=1;exitY=0.5;exitPerimeter=0;endArrow=none;endFill=0;jettySize=auto;orthogonalLoop=1;strokeWidth=4;fontSize=15;fontFamily=Gowun Dodum;fontSource=https%3A%2F%2Ffonts.googleapis.com%2Fcss%3Ffamily%3DGowun%2BDodum;" parent="1" source="uWUnNED6HEl2aK5fdaIb-15" target="uWUnNED6HEl2aK5fdaIb-17" edge="1">
          <mxGeometry relative="1" as="geometry" />
        </mxCell>
        <mxCell id="uWUnNED6HEl2aK5fdaIb-18" style="edgeStyle=orthogonalEdgeStyle;curved=1;rounded=0;html=1;exitX=1;exitY=0.5;exitPerimeter=0;entryX=0;entryY=0.5;entryPerimeter=0;endArrow=blockThin;endFill=0;jettySize=auto;orthogonalLoop=1;strokeWidth=4;fontSize=15;fontFamily=Gowun Dodum;fontSource=https%3A%2F%2Ffonts.googleapis.com%2Fcss%3Ffamily%3DGowun%2BDodum;" parent="1" source="uWUnNED6HEl2aK5fdaIb-19" target="uWUnNED6HEl2aK5fdaIb-11" edge="1">
          <mxGeometry relative="1" as="geometry" />
        </mxCell>
        <mxCell id="uWUnNED6HEl2aK5fdaIb-19" value="" style="verticalLabelPosition=bottom;verticalAlign=top;html=1;strokeWidth=4;shape=mxgraph.flowchart.on-page_reference;plain-purple;gradientColor=none;strokeColor=#000000;fillColor=#E1D5E7;fontFamily=Gowun Dodum;fontSource=https%3A%2F%2Ffonts.googleapis.com%2Fcss%3Ffamily%3DGowun%2BDodum;rotation=90;container=0;" parent="1" vertex="1">
          <mxGeometry x="577" y="396" width="30" height="30" as="geometry" />
        </mxCell>
        <mxCell id="uWUnNED6HEl2aK5fdaIb-16" style="edgeStyle=orthogonalEdgeStyle;curved=1;rounded=0;html=1;exitX=1;exitY=0.5;exitPerimeter=0;entryX=0;entryY=0.5;entryPerimeter=0;endArrow=none;endFill=0;jettySize=auto;orthogonalLoop=1;strokeWidth=4;fontSize=15;fontFamily=Gowun Dodum;fontSource=https%3A%2F%2Ffonts.googleapis.com%2Fcss%3Ffamily%3DGowun%2BDodum;" parent="1" source="uWUnNED6HEl2aK5fdaIb-17" target="uWUnNED6HEl2aK5fdaIb-19" edge="1">
          <mxGeometry relative="1" as="geometry" />
        </mxCell>
        <mxCell id="uWUnNED6HEl2aK5fdaIb-75" style="edgeStyle=orthogonalEdgeStyle;rounded=0;orthogonalLoop=1;jettySize=auto;html=1;entryX=1;entryY=0.5;entryDx=0;entryDy=0;entryPerimeter=0;endArrow=none;endFill=0;strokeWidth=4;curved=1;fontFamily=Gowun Dodum;startArrow=blockThin;startFill=0;fontSource=https%3A%2F%2Ffonts.googleapis.com%2Fcss%3Ffamily%3DGowun%2BDodum;" parent="1" source="uWUnNED6HEl2aK5fdaIb-69" target="uWUnNED6HEl2aK5fdaIb-15" edge="1">
          <mxGeometry relative="1" as="geometry" />
        </mxCell>
        <mxCell id="uWUnNED6HEl2aK5fdaIb-69" value="" style="verticalLabelPosition=bottom;verticalAlign=top;html=1;strokeWidth=4;shape=mxgraph.flowchart.on-page_reference;plain-purple;gradientColor=none;strokeColor=#000000;fillColor=#D5E8D4;fontFamily=Gowun Dodum;fontSource=https%3A%2F%2Ffonts.googleapis.com%2Fcss%3Ffamily%3DGowun%2BDodum;rotation=90;container=0;" parent="1" vertex="1">
          <mxGeometry x="497" y="101" width="30" height="30" as="geometry" />
        </mxCell>
        <mxCell id="uWUnNED6HEl2aK5fdaIb-70" value="" style="verticalLabelPosition=bottom;verticalAlign=top;html=1;strokeWidth=4;shape=mxgraph.flowchart.on-page_reference;plain-purple;gradientColor=none;strokeColor=#000000;fillColor=#D5E8D4;fontFamily=Gowun Dodum;fontSource=https%3A%2F%2Ffonts.googleapis.com%2Fcss%3Ffamily%3DGowun%2BDodum;rotation=90;container=0;" parent="1" vertex="1">
          <mxGeometry x="497" y="199" width="30" height="30" as="geometry" />
        </mxCell>
        <mxCell id="uWUnNED6HEl2aK5fdaIb-71" value="" style="edgeStyle=orthogonalEdgeStyle;rounded=0;orthogonalLoop=1;jettySize=auto;html=1;endArrow=none;endFill=0;strokeWidth=4;fontFamily=Gowun Dodum;fontSource=https%3A%2F%2Ffonts.googleapis.com%2Fcss%3Ffamily%3DGowun%2BDodum;" parent="1" source="uWUnNED6HEl2aK5fdaIb-69" target="uWUnNED6HEl2aK5fdaIb-70" edge="1">
          <mxGeometry relative="1" as="geometry" />
        </mxCell>
        <mxCell id="uWUnNED6HEl2aK5fdaIb-77" value="" style="verticalLabelPosition=bottom;verticalAlign=top;html=1;strokeWidth=4;shape=mxgraph.flowchart.on-page_reference;plain-purple;gradientColor=none;strokeColor=#000000;fillColor=#D5E8D4;fontFamily=Gowun Dodum;fontSource=https%3A%2F%2Ffonts.googleapis.com%2Fcss%3Ffamily%3DGowun%2BDodum;rotation=90;container=0;" parent="1" vertex="1">
          <mxGeometry x="497" y="509" width="30" height="30" as="geometry" />
        </mxCell>
        <mxCell id="uWUnNED6HEl2aK5fdaIb-78" value="" style="edgeStyle=orthogonalEdgeStyle;curved=1;rounded=0;orthogonalLoop=1;jettySize=auto;html=1;endArrow=none;endFill=0;strokeWidth=4;fontFamily=Gowun Dodum;fontSource=https%3A%2F%2Ffonts.googleapis.com%2Fcss%3Ffamily%3DGowun%2BDodum;" parent="1" source="uWUnNED6HEl2aK5fdaIb-70" target="uWUnNED6HEl2aK5fdaIb-77" edge="1">
          <mxGeometry relative="1" as="geometry" />
        </mxCell>
        <mxCell id="uWUnNED6HEl2aK5fdaIb-95" value="" style="verticalLabelPosition=bottom;verticalAlign=top;html=1;strokeWidth=4;shape=mxgraph.flowchart.on-page_reference;plain-purple;gradientColor=none;strokeColor=#000000;fillColor=#D5E8D4;fontFamily=Gowun Dodum;fontSource=https%3A%2F%2Ffonts.googleapis.com%2Fcss%3Ffamily%3DGowun%2BDodum;rotation=90;container=0;" parent="1" vertex="1">
          <mxGeometry x="497" y="611" width="30" height="30" as="geometry" />
        </mxCell>
        <mxCell id="uWUnNED6HEl2aK5fdaIb-96" value="" style="edgeStyle=orthogonalEdgeStyle;curved=1;rounded=0;orthogonalLoop=1;jettySize=auto;html=1;endArrow=none;endFill=0;strokeWidth=4;fontFamily=Gowun Dodum;fontColor=#009900;fontSource=https%3A%2F%2Ffonts.googleapis.com%2Fcss%3Ffamily%3DGowun%2BDodum;" parent="1" source="uWUnNED6HEl2aK5fdaIb-77" target="uWUnNED6HEl2aK5fdaIb-95" edge="1">
          <mxGeometry relative="1" as="geometry" />
        </mxCell>
        <mxCell id="uWUnNED6HEl2aK5fdaIb-92" value="" style="endArrow=classic;html=1;strokeWidth=1;fontFamily=Gowun Dodum;fontColor=#009900;fontSource=https%3A%2F%2Ffonts.googleapis.com%2Fcss%3Ffamily%3DGowun%2BDodum;" parent="1" edge="1">
          <mxGeometry width="50" height="50" relative="1" as="geometry">
            <mxPoint x="593" y="-148" as="sourcePoint" />
            <mxPoint x="593" y="-28" as="targetPoint" />
          </mxGeometry>
        </mxCell>
        <mxCell id="uWUnNED6HEl2aK5fdaIb-101" value="Tag: 1.1.0" style="text;html=1;strokeColor=none;fillColor=none;align=center;verticalAlign=middle;whiteSpace=wrap;overflow=hidden;fontSize=14;fontFamily=Gowun Dodum;fontSource=https%3A%2F%2Ffonts.googleapis.com%2Fcss%3Ffamily%3DGowun%2BDodum;rotation=90;container=0;" parent="1" vertex="1">
          <mxGeometry x="653" y="518" width="110" height="20" as="geometry" />
        </mxCell>
        <mxCell id="uWUnNED6HEl2aK5fdaIb-103" value="Tag: 1.0.0" style="text;html=1;strokeColor=none;fillColor=none;align=center;verticalAlign=middle;whiteSpace=wrap;overflow=hidden;fontSize=14;fontFamily=Gowun Dodum;fontSource=https%3A%2F%2Ffonts.googleapis.com%2Fcss%3Ffamily%3DGowun%2BDodum;rotation=90;container=0;" parent="1" vertex="1">
          <mxGeometry x="673" y="-49" width="70" height="20" as="geometry" />
        </mxCell>
        <mxCell id="uWUnNED6HEl2aK5fdaIb-107" value="" style="edgeStyle=orthogonalEdgeStyle;curved=1;rounded=0;orthogonalLoop=1;jettySize=auto;html=1;endArrow=none;endFill=0;strokeWidth=4;fontFamily=Gowun Dodum;fontColor=#009900;exitX=1;exitY=0.5;exitDx=0;exitDy=0;exitPerimeter=0;fontSource=https%3A%2F%2Ffonts.googleapis.com%2Fcss%3Ffamily%3DGowun%2BDodum;" parent="1" source="uWUnNED6HEl2aK5fdaIb-19" target="uWUnNED6HEl2aK5fdaIb-106" edge="1">
          <mxGeometry relative="1" as="geometry">
            <mxPoint x="592" y="620" as="sourcePoint" />
          </mxGeometry>
        </mxCell>
        <mxCell id="uWUnNED6HEl2aK5fdaIb-115" style="edgeStyle=orthogonalEdgeStyle;curved=1;rounded=0;orthogonalLoop=1;jettySize=auto;html=1;entryX=0;entryY=0.5;entryDx=0;entryDy=0;entryPerimeter=0;endArrow=blockThin;endFill=0;strokeWidth=4;fontFamily=Gowun Dodum;fontColor=#009900;movable=1;resizable=1;rotatable=1;deletable=1;editable=1;locked=0;connectable=1;fontSource=https%3A%2F%2Ffonts.googleapis.com%2Fcss%3Ffamily%3DGowun%2BDodum;" parent="1" source="uWUnNED6HEl2aK5fdaIb-106" target="uWUnNED6HEl2aK5fdaIb-109" edge="1">
          <mxGeometry relative="1" as="geometry" />
        </mxCell>
        <mxCell id="uWUnNED6HEl2aK5fdaIb-106" value="" style="verticalLabelPosition=bottom;verticalAlign=top;html=1;strokeWidth=4;shape=mxgraph.flowchart.on-page_reference;plain-purple;gradientColor=none;strokeColor=#000000;fillColor=#E1D5E7;fontFamily=Gowun Dodum;fontSource=https%3A%2F%2Ffonts.googleapis.com%2Fcss%3Ffamily%3DGowun%2BDodum;rotation=90;container=0;" parent="1" vertex="1">
          <mxGeometry x="577" y="680" width="30" height="30" as="geometry" />
        </mxCell>
        <mxCell id="uWUnNED6HEl2aK5fdaIb-108" style="edgeStyle=orthogonalEdgeStyle;curved=1;rounded=0;orthogonalLoop=1;jettySize=auto;html=1;entryX=0;entryY=0.5;entryDx=0;entryDy=0;entryPerimeter=0;endArrow=blockThin;endFill=0;strokeWidth=4;fontFamily=Gowun Dodum;fontColor=#009900;fontSource=https%3A%2F%2Ffonts.googleapis.com%2Fcss%3Ffamily%3DGowun%2BDodum;" parent="1" source="uWUnNED6HEl2aK5fdaIb-95" target="uWUnNED6HEl2aK5fdaIb-106" edge="1">
          <mxGeometry relative="1" as="geometry" />
        </mxCell>
        <mxCell id="uWUnNED6HEl2aK5fdaIb-116" value="Tag: 1.2.0" style="text;html=1;strokeColor=none;fillColor=none;align=center;verticalAlign=middle;whiteSpace=wrap;overflow=hidden;fontSize=14;fontFamily=Gowun Dodum;fontSource=https%3A%2F%2Ffonts.googleapis.com%2Fcss%3Ffamily%3DGowun%2BDodum;rotation=90;container=0;" parent="1" vertex="1">
          <mxGeometry x="655" y="740" width="110" height="20" as="geometry" />
        </mxCell>
        <mxCell id="fSnZ5vnYTslC5NarKmr_-9" value="" style="edgeStyle=orthogonalEdgeStyle;rounded=0;orthogonalLoop=1;jettySize=auto;html=1;fontSize=12;fontColor=#000000;entryX=0;entryY=0.5;entryDx=0;entryDy=0;fontFamily=Gowun Dodum;fontSource=https%3A%2F%2Ffonts.googleapis.com%2Fcss%3Ffamily%3DGowun%2BDodum;" parent="1" target="uWUnNED6HEl2aK5fdaIb-103" edge="1">
          <mxGeometry relative="1" as="geometry">
            <mxPoint x="708" y="-94" as="targetPoint" />
            <Array as="points">
              <mxPoint x="708" y="-94" />
              <mxPoint x="708" y="-94" />
            </Array>
            <mxPoint x="708" y="-102" as="sourcePoint" />
          </mxGeometry>
        </mxCell>
        <mxCell id="9hBKPDzoitwpIBdzFDQ7-21" value="" style="edgeStyle=orthogonalEdgeStyle;rounded=0;orthogonalLoop=1;jettySize=auto;html=1;fontSize=15;endArrow=none;endFill=0;strokeWidth=4;entryX=0;entryY=0.5;entryDx=0;entryDy=0;entryPerimeter=0;fontFamily=Gowun Dodum;fontSource=https%3A%2F%2Ffonts.googleapis.com%2Fcss%3Ffamily%3DGowun%2BDodum;" parent="1" source="9hBKPDzoitwpIBdzFDQ7-16" target="uWUnNED6HEl2aK5fdaIb-11" edge="1">
          <mxGeometry relative="1" as="geometry">
            <mxPoint x="677" y="443" as="targetPoint" />
          </mxGeometry>
        </mxCell>
        <mxCell id="9hBKPDzoitwpIBdzFDQ7-16" value="" style="verticalLabelPosition=bottom;verticalAlign=top;html=1;strokeWidth=4;shape=mxgraph.flowchart.on-page_reference;plain-blue;gradientColor=none;strokeColor=#000000;fillColor=#B5E3FE;fontFamily=Gowun Dodum;fontSource=https%3A%2F%2Ffonts.googleapis.com%2Fcss%3Ffamily%3DGowun%2BDodum;rotation=90;container=0;" parent="1" vertex="1">
          <mxGeometry x="662" y="362" width="30" height="30" as="geometry" />
        </mxCell>
        <mxCell id="SRGO4UnGUBrBW_WfY3YX-2" value="" style="endArrow=classic;html=1;strokeWidth=1;fontFamily=Gowun Dodum;fontColor=#009900;fontSource=https%3A%2F%2Ffonts.googleapis.com%2Fcss%3Ffamily%3DGowun%2BDodum;" parent="1" edge="1">
          <mxGeometry width="50" height="50" relative="1" as="geometry">
            <mxPoint x="504" y="-119" as="sourcePoint" />
            <mxPoint x="504" y="71" as="targetPoint" />
          </mxGeometry>
        </mxCell>
        <mxCell id="dSUTmSiw0o1QyCeKMy4D-2" style="edgeStyle=orthogonalEdgeStyle;rounded=0;orthogonalLoop=1;jettySize=auto;html=1;entryX=0;entryY=0.5;entryDx=0;entryDy=0;entryPerimeter=0;endArrow=blockThin;endFill=0;strokeWidth=4;curved=1;fontFamily=Gowun Dodum;fontSource=https%3A%2F%2Ffonts.googleapis.com%2Fcss%3Ffamily%3DGowun%2BDodum;" edge="1" parent="1" target="uWUnNED6HEl2aK5fdaIb-17">
          <mxGeometry relative="1" as="geometry">
            <mxPoint x="513" y="229" as="sourcePoint" />
            <mxPoint x="593" y="276" as="targetPoint" />
            <Array as="points">
              <mxPoint x="513" y="256" />
              <mxPoint x="593" y="256" />
            </Array>
          </mxGeometry>
        </mxCell>
        <mxCell id="dSUTmSiw0o1QyCeKMy4D-6" style="edgeStyle=orthogonalEdgeStyle;curved=1;rounded=0;html=1;endArrow=blockThin;endFill=0;jettySize=auto;orthogonalLoop=1;strokeWidth=4;fontSize=15;fontFamily=Gowun Dodum;exitX=1;exitY=0.5;exitDx=0;exitDy=0;exitPerimeter=0;entryX=0;entryY=0.5;entryDx=0;entryDy=0;entryPerimeter=0;fontSource=https%3A%2F%2Ffonts.googleapis.com%2Fcss%3Ffamily%3DGowun%2BDodum;" edge="1" parent="1" source="uWUnNED6HEl2aK5fdaIb-19" target="uWUnNED6HEl2aK5fdaIb-77">
          <mxGeometry relative="1" as="geometry">
            <mxPoint x="577" y="328" as="sourcePoint" />
            <mxPoint x="528" y="354" as="targetPoint" />
          </mxGeometry>
        </mxCell>
        <mxCell id="uWUnNED6HEl2aK5fdaIb-8" value="" style="edgeStyle=orthogonalEdgeStyle;rounded=0;html=1;jettySize=auto;orthogonalLoop=1;plain-blue;endArrow=none;endFill=0;strokeWidth=4;strokeColor=#000000;entryX=0;entryY=0.5;entryDx=0;entryDy=0;entryPerimeter=0;fontFamily=Gowun Dodum;fontSource=https%3A%2F%2Ffonts.googleapis.com%2Fcss%3Ffamily%3DGowun%2BDodum;" parent="1" source="uWUnNED6HEl2aK5fdaIb-10" target="9hBKPDzoitwpIBdzFDQ7-16" edge="1">
          <mxGeometry x="677" y="-24" as="geometry">
            <mxPoint x="677" y="126" as="targetPoint" />
          </mxGeometry>
        </mxCell>
        <mxCell id="dSUTmSiw0o1QyCeKMy4D-8" style="edgeStyle=orthogonalEdgeStyle;rounded=0;orthogonalLoop=1;jettySize=auto;html=1;endArrow=blockThin;endFill=0;strokeWidth=4;curved=1;fontFamily=Gowun Dodum;exitX=1;exitY=0.5;exitDx=0;exitDy=0;exitPerimeter=0;entryX=0;entryY=0.5;entryDx=0;entryDy=0;entryPerimeter=0;fontSource=https%3A%2F%2Ffonts.googleapis.com%2Fcss%3Ffamily%3DGowun%2BDodum;" edge="1" parent="1" source="uWUnNED6HEl2aK5fdaIb-17" target="9hBKPDzoitwpIBdzFDQ7-16">
          <mxGeometry relative="1" as="geometry">
            <mxPoint x="602" y="328" as="sourcePoint" />
            <mxPoint x="648" y="304" as="targetPoint" />
          </mxGeometry>
        </mxCell>
        <mxCell id="dSUTmSiw0o1QyCeKMy4D-10" value="Tag: 1.1.0" style="text;html=1;strokeColor=none;fillColor=none;align=center;verticalAlign=middle;whiteSpace=wrap;overflow=hidden;fontSize=14;fontFamily=Gowun Dodum;fontSource=https%3A%2F%2Ffonts.googleapis.com%2Fcss%3Ffamily%3DGowun%2BDodum;rotation=90;container=0;" vertex="1" parent="1">
          <mxGeometry x="673" y="359" width="70" height="20" as="geometry" />
        </mxCell>
        <mxCell id="uWUnNED6HEl2aK5fdaIb-76" value="local" style="text;html=1;strokeColor=none;fillColor=none;align=left;verticalAlign=middle;whiteSpace=wrap;overflow=hidden;fontSize=14;fontStyle=1;fontFamily=Gowun Dodum;fontSource=https%3A%2F%2Ffonts.googleapis.com%2Fcss%3Ffamily%3DGowun%2BDodum;rotation=0;container=0;" parent="1" vertex="1">
          <mxGeometry x="424" y="-220" width="91" height="20" as="geometry" />
        </mxCell>
        <mxCell id="uWUnNED6HEl2aK5fdaIb-87" value="개발자의 Local PC" style="text;html=1;strokeColor=none;fillColor=none;align=left;verticalAlign=middle;whiteSpace=wrap;overflow=hidden;fontSize=14;fontStyle=0;fontColor=#009900;fontFamily=Gowun Dodum;fontSource=https%3A%2F%2Ffonts.googleapis.com%2Fcss%3Ffamily%3DGowun%2BDodum;rotation=0;container=0;" parent="1" vertex="1">
          <mxGeometry x="422" y="-200" width="240" height="20" as="geometry" />
        </mxCell>
        <mxCell id="uWUnNED6HEl2aK5fdaIb-89" value="개발 배포" style="text;html=1;strokeColor=none;fillColor=none;align=left;verticalAlign=middle;whiteSpace=wrap;overflow=hidden;fontSize=14;fontStyle=0;fontColor=#009900;fontFamily=Gowun Dodum;fontSource=https%3A%2F%2Ffonts.googleapis.com%2Fcss%3Ffamily%3DGowun%2BDodum;rotation=0;container=0;" parent="1" vertex="1">
          <mxGeometry x="560.75" y="-200" width="240" height="20" as="geometry" />
        </mxCell>
        <mxCell id="uWUnNED6HEl2aK5fdaIb-20" value="develop" style="text;html=1;strokeColor=none;fillColor=none;align=left;verticalAlign=middle;whiteSpace=wrap;overflow=hidden;fontSize=14;fontStyle=1;fontFamily=Gowun Dodum;fontSource=https%3A%2F%2Ffonts.googleapis.com%2Fcss%3Ffamily%3DGowun%2BDodum;rotation=0;container=0;" parent="1" vertex="1">
          <mxGeometry x="562.75" y="-220" width="240" height="20" as="geometry" />
        </mxCell>
        <mxCell id="uWUnNED6HEl2aK5fdaIb-90" value="통시/운영 배포" style="text;html=1;strokeColor=none;fillColor=none;align=left;verticalAlign=middle;whiteSpace=wrap;overflow=hidden;fontSize=14;fontStyle=0;fontColor=#009900;fontFamily=Gowun Dodum;fontSource=https%3A%2F%2Ffonts.googleapis.com%2Fcss%3Ffamily%3DGowun%2BDodum;rotation=0;container=0;" parent="1" vertex="1">
          <mxGeometry x="656" y="-200" width="146.75" height="20" as="geometry" />
        </mxCell>
        <mxCell id="uWUnNED6HEl2aK5fdaIb-13" value="master" style="text;html=1;strokeColor=none;fillColor=none;align=center;verticalAlign=middle;whiteSpace=wrap;overflow=hidden;fontSize=14;fontStyle=1;fontFamily=Gowun Dodum;fontSource=https%3A%2F%2Ffonts.googleapis.com%2Fcss%3Ffamily%3DGowun%2BDodum;rotation=0;container=0;" parent="1" vertex="1">
          <mxGeometry x="650" y="-230" width="50" height="42" as="geometry" />
        </mxCell>
      </root>
    </mxGraphModel>
  </diagram>
  <diagram id="MnLMIarTVuGxA7Fiu9Yp" name="개발-1">
    <mxGraphModel dx="1144" dy="1812" grid="1" gridSize="10" guides="1" tooltips="1" connect="1" arrows="1" fold="1" page="1" pageScale="1" pageWidth="827" pageHeight="1169" math="0" shadow="0">
      <root>
        <mxCell id="0" />
        <mxCell id="1" parent="0" />
        <mxCell id="WIIxCO3e-V3OqHyJZPW5-1" value="" style="verticalLabelPosition=bottom;verticalAlign=top;html=1;strokeWidth=4;shape=mxgraph.flowchart.on-page_reference;plain-blue;gradientColor=none;fillColor=#B5E3Fe;strokeColor=#000000;fontFamily=Gowun Dodum;fontSource=https%3A%2F%2Ffonts.googleapis.com%2Fcss%3Ffamily%3DGowun%2BDodum;rotation=90;container=0;" vertex="1" parent="1">
          <mxGeometry x="662" y="-54" width="30" height="30" as="geometry" />
        </mxCell>
        <mxCell id="WIIxCO3e-V3OqHyJZPW5-2" value="" style="verticalLabelPosition=bottom;verticalAlign=top;html=1;strokeWidth=4;shape=mxgraph.flowchart.on-page_reference;plain-blue;gradientColor=none;strokeColor=#000000;fillColor=#B5E3FE;fontFamily=Gowun Dodum;fontSource=https%3A%2F%2Ffonts.googleapis.com%2Fcss%3Ffamily%3DGowun%2BDodum;rotation=90;container=0;" vertex="1" parent="1">
          <mxGeometry x="662" y="505" width="30" height="30" as="geometry" />
        </mxCell>
        <mxCell id="WIIxCO3e-V3OqHyJZPW5-3" value="" style="verticalLabelPosition=bottom;verticalAlign=top;html=1;strokeWidth=4;shape=mxgraph.flowchart.on-page_reference;plain-blue;gradientColor=none;strokeColor=#33001A;fillColor=#B5E3FE;fontFamily=Gowun Dodum;fontSource=https%3A%2F%2Ffonts.googleapis.com%2Fcss%3Ffamily%3DGowun%2BDodum;rotation=90;container=0;" vertex="1" parent="1">
          <mxGeometry x="662" y="757" width="30" height="30" as="geometry" />
        </mxCell>
        <mxCell id="WIIxCO3e-V3OqHyJZPW5-4" value="" style="edgeStyle=orthogonalEdgeStyle;curved=1;rounded=0;orthogonalLoop=1;jettySize=auto;html=1;endArrow=none;endFill=0;strokeWidth=4;entryX=0;entryY=0.5;entryDx=0;entryDy=0;entryPerimeter=0;fontFamily=Gowun Dodum;fontSource=https%3A%2F%2Ffonts.googleapis.com%2Fcss%3Ffamily%3DGowun%2BDodum;" edge="1" parent="1" source="WIIxCO3e-V3OqHyJZPW5-2" target="WIIxCO3e-V3OqHyJZPW5-3">
          <mxGeometry relative="1" as="geometry">
            <mxPoint x="677" y="617" as="targetPoint" />
          </mxGeometry>
        </mxCell>
        <mxCell id="WIIxCO3e-V3OqHyJZPW5-5" value="" style="edgeStyle=orthogonalEdgeStyle;rounded=0;html=1;jettySize=auto;orthogonalLoop=1;strokeWidth=4;endArrow=none;endFill=0;fontFamily=Gowun Dodum;fontSource=https%3A%2F%2Ffonts.googleapis.com%2Fcss%3Ffamily%3DGowun%2BDodum;" edge="1" parent="1" target="WIIxCO3e-V3OqHyJZPW5-1">
          <mxGeometry x="677" y="-124" as="geometry">
            <mxPoint x="677" y="-166" as="sourcePoint" />
          </mxGeometry>
        </mxCell>
        <mxCell id="WIIxCO3e-V3OqHyJZPW5-6" value="" style="verticalLabelPosition=bottom;verticalAlign=top;html=1;strokeWidth=4;shape=mxgraph.flowchart.on-page_reference;plain-purple;gradientColor=none;strokeColor=#000000;fillColor=#E1D5E7;fontFamily=Gowun Dodum;fontColor=#e1d5e7;fontSource=https%3A%2F%2Ffonts.googleapis.com%2Fcss%3Ffamily%3DGowun%2BDodum;rotation=90;container=0;" vertex="1" parent="1">
          <mxGeometry x="577" y="24" width="30" height="30" as="geometry" />
        </mxCell>
        <mxCell id="WIIxCO3e-V3OqHyJZPW5-7" style="edgeStyle=orthogonalEdgeStyle;curved=1;rounded=0;html=1;exitX=1;exitY=0.5;exitPerimeter=0;entryX=0;entryY=0.5;entryPerimeter=0;endArrow=blockThin;endFill=0;jettySize=auto;orthogonalLoop=1;strokeWidth=4;fontSize=15;fontFamily=Gowun Dodum;fontSource=https%3A%2F%2Ffonts.googleapis.com%2Fcss%3Ffamily%3DGowun%2BDodum;" edge="1" parent="1" source="WIIxCO3e-V3OqHyJZPW5-1" target="WIIxCO3e-V3OqHyJZPW5-6">
          <mxGeometry relative="1" as="geometry" />
        </mxCell>
        <mxCell id="WIIxCO3e-V3OqHyJZPW5-8" value="" style="verticalLabelPosition=bottom;verticalAlign=top;html=1;strokeWidth=4;shape=mxgraph.flowchart.on-page_reference;plain-purple;gradientColor=none;strokeColor=#000000;fillColor=#E1D5E7;fontFamily=Gowun Dodum;fontSource=https%3A%2F%2Ffonts.googleapis.com%2Fcss%3Ffamily%3DGowun%2BDodum;rotation=90;container=0;" vertex="1" parent="1">
          <mxGeometry x="577" y="293" width="30" height="30" as="geometry" />
        </mxCell>
        <mxCell id="WIIxCO3e-V3OqHyJZPW5-9" style="edgeStyle=orthogonalEdgeStyle;curved=1;rounded=0;html=1;exitX=1;exitY=0.5;exitPerimeter=0;endArrow=none;endFill=0;jettySize=auto;orthogonalLoop=1;strokeWidth=4;fontSize=15;fontFamily=Gowun Dodum;fontSource=https%3A%2F%2Ffonts.googleapis.com%2Fcss%3Ffamily%3DGowun%2BDodum;" edge="1" parent="1" source="WIIxCO3e-V3OqHyJZPW5-6" target="WIIxCO3e-V3OqHyJZPW5-8">
          <mxGeometry relative="1" as="geometry" />
        </mxCell>
        <mxCell id="WIIxCO3e-V3OqHyJZPW5-10" style="edgeStyle=orthogonalEdgeStyle;curved=1;rounded=0;html=1;exitX=1;exitY=0.5;exitPerimeter=0;entryX=0;entryY=0.5;entryPerimeter=0;endArrow=blockThin;endFill=0;jettySize=auto;orthogonalLoop=1;strokeWidth=4;fontSize=15;fontFamily=Gowun Dodum;fontSource=https%3A%2F%2Ffonts.googleapis.com%2Fcss%3Ffamily%3DGowun%2BDodum;" edge="1" parent="1" source="WIIxCO3e-V3OqHyJZPW5-11" target="WIIxCO3e-V3OqHyJZPW5-2">
          <mxGeometry relative="1" as="geometry" />
        </mxCell>
        <mxCell id="WIIxCO3e-V3OqHyJZPW5-11" value="" style="verticalLabelPosition=bottom;verticalAlign=top;html=1;strokeWidth=4;shape=mxgraph.flowchart.on-page_reference;plain-purple;gradientColor=none;strokeColor=#000000;fillColor=#E1D5E7;fontFamily=Gowun Dodum;fontSource=https%3A%2F%2Ffonts.googleapis.com%2Fcss%3Ffamily%3DGowun%2BDodum;rotation=90;container=0;" vertex="1" parent="1">
          <mxGeometry x="577" y="396" width="30" height="30" as="geometry" />
        </mxCell>
        <mxCell id="WIIxCO3e-V3OqHyJZPW5-12" style="edgeStyle=orthogonalEdgeStyle;curved=1;rounded=0;html=1;exitX=1;exitY=0.5;exitPerimeter=0;entryX=0;entryY=0.5;entryPerimeter=0;endArrow=none;endFill=0;jettySize=auto;orthogonalLoop=1;strokeWidth=4;fontSize=15;fontFamily=Gowun Dodum;fontSource=https%3A%2F%2Ffonts.googleapis.com%2Fcss%3Ffamily%3DGowun%2BDodum;" edge="1" parent="1" source="WIIxCO3e-V3OqHyJZPW5-8" target="WIIxCO3e-V3OqHyJZPW5-11">
          <mxGeometry relative="1" as="geometry" />
        </mxCell>
        <mxCell id="WIIxCO3e-V3OqHyJZPW5-13" style="edgeStyle=orthogonalEdgeStyle;rounded=0;orthogonalLoop=1;jettySize=auto;html=1;entryX=1;entryY=0.5;entryDx=0;entryDy=0;entryPerimeter=0;endArrow=none;endFill=0;strokeWidth=4;curved=1;fontFamily=Gowun Dodum;startArrow=blockThin;startFill=0;fontSource=https%3A%2F%2Ffonts.googleapis.com%2Fcss%3Ffamily%3DGowun%2BDodum;" edge="1" parent="1" source="WIIxCO3e-V3OqHyJZPW5-14" target="WIIxCO3e-V3OqHyJZPW5-6">
          <mxGeometry relative="1" as="geometry" />
        </mxCell>
        <mxCell id="WIIxCO3e-V3OqHyJZPW5-14" value="" style="verticalLabelPosition=bottom;verticalAlign=top;html=1;strokeWidth=4;shape=mxgraph.flowchart.on-page_reference;plain-purple;gradientColor=none;strokeColor=#000000;fillColor=#D5E8D4;fontFamily=Gowun Dodum;fontSource=https%3A%2F%2Ffonts.googleapis.com%2Fcss%3Ffamily%3DGowun%2BDodum;rotation=90;container=0;" vertex="1" parent="1">
          <mxGeometry x="497" y="101" width="30" height="30" as="geometry" />
        </mxCell>
        <mxCell id="WIIxCO3e-V3OqHyJZPW5-15" value="" style="verticalLabelPosition=bottom;verticalAlign=top;html=1;strokeWidth=4;shape=mxgraph.flowchart.on-page_reference;plain-purple;gradientColor=none;strokeColor=#000000;fillColor=#D5E8D4;fontFamily=Gowun Dodum;fontSource=https%3A%2F%2Ffonts.googleapis.com%2Fcss%3Ffamily%3DGowun%2BDodum;rotation=90;container=0;" vertex="1" parent="1">
          <mxGeometry x="497" y="199" width="30" height="30" as="geometry" />
        </mxCell>
        <mxCell id="WIIxCO3e-V3OqHyJZPW5-16" value="" style="edgeStyle=orthogonalEdgeStyle;rounded=0;orthogonalLoop=1;jettySize=auto;html=1;endArrow=none;endFill=0;strokeWidth=4;fontFamily=Gowun Dodum;fontSource=https%3A%2F%2Ffonts.googleapis.com%2Fcss%3Ffamily%3DGowun%2BDodum;" edge="1" parent="1" source="WIIxCO3e-V3OqHyJZPW5-14" target="WIIxCO3e-V3OqHyJZPW5-15">
          <mxGeometry relative="1" as="geometry" />
        </mxCell>
        <mxCell id="WIIxCO3e-V3OqHyJZPW5-17" value="" style="verticalLabelPosition=bottom;verticalAlign=top;html=1;strokeWidth=4;shape=mxgraph.flowchart.on-page_reference;plain-purple;gradientColor=none;strokeColor=#000000;fillColor=#D5E8D4;fontFamily=Gowun Dodum;fontSource=https%3A%2F%2Ffonts.googleapis.com%2Fcss%3Ffamily%3DGowun%2BDodum;rotation=90;container=0;" vertex="1" parent="1">
          <mxGeometry x="497" y="509" width="30" height="30" as="geometry" />
        </mxCell>
        <mxCell id="WIIxCO3e-V3OqHyJZPW5-18" value="" style="edgeStyle=orthogonalEdgeStyle;curved=1;rounded=0;orthogonalLoop=1;jettySize=auto;html=1;endArrow=none;endFill=0;strokeWidth=4;fontFamily=Gowun Dodum;fontSource=https%3A%2F%2Ffonts.googleapis.com%2Fcss%3Ffamily%3DGowun%2BDodum;" edge="1" parent="1" source="WIIxCO3e-V3OqHyJZPW5-15" target="WIIxCO3e-V3OqHyJZPW5-17">
          <mxGeometry relative="1" as="geometry" />
        </mxCell>
        <mxCell id="WIIxCO3e-V3OqHyJZPW5-19" value="" style="verticalLabelPosition=bottom;verticalAlign=top;html=1;strokeWidth=4;shape=mxgraph.flowchart.on-page_reference;plain-purple;gradientColor=none;strokeColor=#000000;fillColor=#D5E8D4;fontFamily=Gowun Dodum;fontSource=https%3A%2F%2Ffonts.googleapis.com%2Fcss%3Ffamily%3DGowun%2BDodum;rotation=90;container=0;" vertex="1" parent="1">
          <mxGeometry x="497" y="611" width="30" height="30" as="geometry" />
        </mxCell>
        <mxCell id="WIIxCO3e-V3OqHyJZPW5-20" value="" style="edgeStyle=orthogonalEdgeStyle;curved=1;rounded=0;orthogonalLoop=1;jettySize=auto;html=1;endArrow=none;endFill=0;strokeWidth=4;fontFamily=Gowun Dodum;fontColor=#009900;fontSource=https%3A%2F%2Ffonts.googleapis.com%2Fcss%3Ffamily%3DGowun%2BDodum;" edge="1" parent="1" source="WIIxCO3e-V3OqHyJZPW5-17" target="WIIxCO3e-V3OqHyJZPW5-19">
          <mxGeometry relative="1" as="geometry" />
        </mxCell>
        <mxCell id="WIIxCO3e-V3OqHyJZPW5-21" value="" style="endArrow=classic;html=1;strokeWidth=1;fontFamily=Gowun Dodum;fontColor=#009900;fontSource=https%3A%2F%2Ffonts.googleapis.com%2Fcss%3Ffamily%3DGowun%2BDodum;" edge="1" parent="1">
          <mxGeometry width="50" height="50" relative="1" as="geometry">
            <mxPoint x="593" y="-148" as="sourcePoint" />
            <mxPoint x="593" y="-28" as="targetPoint" />
          </mxGeometry>
        </mxCell>
        <mxCell id="WIIxCO3e-V3OqHyJZPW5-24" value="" style="edgeStyle=orthogonalEdgeStyle;curved=1;rounded=0;orthogonalLoop=1;jettySize=auto;html=1;endArrow=none;endFill=0;strokeWidth=4;fontFamily=Gowun Dodum;fontColor=#009900;exitX=1;exitY=0.5;exitDx=0;exitDy=0;exitPerimeter=0;fontSource=https%3A%2F%2Ffonts.googleapis.com%2Fcss%3Ffamily%3DGowun%2BDodum;" edge="1" parent="1" source="WIIxCO3e-V3OqHyJZPW5-11" target="WIIxCO3e-V3OqHyJZPW5-26">
          <mxGeometry relative="1" as="geometry">
            <mxPoint x="592" y="620" as="sourcePoint" />
          </mxGeometry>
        </mxCell>
        <mxCell id="WIIxCO3e-V3OqHyJZPW5-26" value="" style="verticalLabelPosition=bottom;verticalAlign=top;html=1;strokeWidth=4;shape=mxgraph.flowchart.on-page_reference;plain-purple;gradientColor=none;strokeColor=#000000;fillColor=#E1D5E7;fontFamily=Gowun Dodum;fontSource=https%3A%2F%2Ffonts.googleapis.com%2Fcss%3Ffamily%3DGowun%2BDodum;rotation=90;container=0;" vertex="1" parent="1">
          <mxGeometry x="577" y="680" width="30" height="30" as="geometry" />
        </mxCell>
        <mxCell id="WIIxCO3e-V3OqHyJZPW5-27" style="edgeStyle=orthogonalEdgeStyle;curved=1;rounded=0;orthogonalLoop=1;jettySize=auto;html=1;entryX=0;entryY=0.5;entryDx=0;entryDy=0;entryPerimeter=0;endArrow=blockThin;endFill=0;strokeWidth=4;fontFamily=Gowun Dodum;fontColor=#009900;fontSource=https%3A%2F%2Ffonts.googleapis.com%2Fcss%3Ffamily%3DGowun%2BDodum;" edge="1" parent="1" source="WIIxCO3e-V3OqHyJZPW5-19" target="WIIxCO3e-V3OqHyJZPW5-26">
          <mxGeometry relative="1" as="geometry" />
        </mxCell>
        <mxCell id="WIIxCO3e-V3OqHyJZPW5-29" value="" style="edgeStyle=orthogonalEdgeStyle;rounded=0;orthogonalLoop=1;jettySize=auto;html=1;fontSize=12;fontColor=#000000;entryX=0;entryY=0.5;entryDx=0;entryDy=0;fontFamily=Gowun Dodum;fontSource=https%3A%2F%2Ffonts.googleapis.com%2Fcss%3Ffamily%3DGowun%2BDodum;" edge="1" parent="1">
          <mxGeometry relative="1" as="geometry">
            <mxPoint x="708" y="-74" as="targetPoint" />
            <Array as="points">
              <mxPoint x="708" y="-94" />
              <mxPoint x="708" y="-94" />
            </Array>
            <mxPoint x="708" y="-102" as="sourcePoint" />
          </mxGeometry>
        </mxCell>
        <mxCell id="WIIxCO3e-V3OqHyJZPW5-30" value="" style="edgeStyle=orthogonalEdgeStyle;rounded=0;orthogonalLoop=1;jettySize=auto;html=1;fontSize=15;endArrow=none;endFill=0;strokeWidth=4;entryX=0;entryY=0.5;entryDx=0;entryDy=0;entryPerimeter=0;fontFamily=Gowun Dodum;fontSource=https%3A%2F%2Ffonts.googleapis.com%2Fcss%3Ffamily%3DGowun%2BDodum;" edge="1" parent="1" source="WIIxCO3e-V3OqHyJZPW5-31" target="WIIxCO3e-V3OqHyJZPW5-2">
          <mxGeometry relative="1" as="geometry">
            <mxPoint x="677" y="443" as="targetPoint" />
          </mxGeometry>
        </mxCell>
        <mxCell id="WIIxCO3e-V3OqHyJZPW5-31" value="" style="verticalLabelPosition=bottom;verticalAlign=top;html=1;strokeWidth=4;shape=mxgraph.flowchart.on-page_reference;plain-blue;gradientColor=none;strokeColor=#000000;fillColor=#B5E3FE;fontFamily=Gowun Dodum;fontSource=https%3A%2F%2Ffonts.googleapis.com%2Fcss%3Ffamily%3DGowun%2BDodum;rotation=90;container=0;" vertex="1" parent="1">
          <mxGeometry x="662" y="362" width="30" height="30" as="geometry" />
        </mxCell>
        <mxCell id="WIIxCO3e-V3OqHyJZPW5-32" value="" style="endArrow=classic;html=1;strokeWidth=1;fontFamily=Gowun Dodum;fontColor=#009900;fontSource=https%3A%2F%2Ffonts.googleapis.com%2Fcss%3Ffamily%3DGowun%2BDodum;" edge="1" parent="1">
          <mxGeometry width="50" height="50" relative="1" as="geometry">
            <mxPoint x="504" y="-119" as="sourcePoint" />
            <mxPoint x="504" y="71" as="targetPoint" />
          </mxGeometry>
        </mxCell>
        <mxCell id="WIIxCO3e-V3OqHyJZPW5-33" style="edgeStyle=orthogonalEdgeStyle;rounded=0;orthogonalLoop=1;jettySize=auto;html=1;entryX=0;entryY=0.5;entryDx=0;entryDy=0;entryPerimeter=0;endArrow=blockThin;endFill=0;strokeWidth=4;curved=1;fontFamily=Gowun Dodum;fontSource=https%3A%2F%2Ffonts.googleapis.com%2Fcss%3Ffamily%3DGowun%2BDodum;" edge="1" parent="1" target="WIIxCO3e-V3OqHyJZPW5-8">
          <mxGeometry relative="1" as="geometry">
            <mxPoint x="513" y="229" as="sourcePoint" />
            <mxPoint x="593" y="276" as="targetPoint" />
            <Array as="points">
              <mxPoint x="513" y="256" />
              <mxPoint x="593" y="256" />
            </Array>
          </mxGeometry>
        </mxCell>
        <mxCell id="WIIxCO3e-V3OqHyJZPW5-34" style="edgeStyle=orthogonalEdgeStyle;curved=1;rounded=0;html=1;endArrow=blockThin;endFill=0;jettySize=auto;orthogonalLoop=1;strokeWidth=4;fontSize=15;fontFamily=Gowun Dodum;exitX=1;exitY=0.5;exitDx=0;exitDy=0;exitPerimeter=0;entryX=0;entryY=0.5;entryDx=0;entryDy=0;entryPerimeter=0;fontSource=https%3A%2F%2Ffonts.googleapis.com%2Fcss%3Ffamily%3DGowun%2BDodum;" edge="1" parent="1" source="WIIxCO3e-V3OqHyJZPW5-11" target="WIIxCO3e-V3OqHyJZPW5-17">
          <mxGeometry relative="1" as="geometry">
            <mxPoint x="577" y="328" as="sourcePoint" />
            <mxPoint x="528" y="354" as="targetPoint" />
          </mxGeometry>
        </mxCell>
        <mxCell id="WIIxCO3e-V3OqHyJZPW5-35" value="" style="edgeStyle=orthogonalEdgeStyle;rounded=0;html=1;jettySize=auto;orthogonalLoop=1;plain-blue;endArrow=none;endFill=0;strokeWidth=4;strokeColor=#000000;entryX=0;entryY=0.5;entryDx=0;entryDy=0;entryPerimeter=0;fontFamily=Gowun Dodum;fontSource=https%3A%2F%2Ffonts.googleapis.com%2Fcss%3Ffamily%3DGowun%2BDodum;" edge="1" parent="1" source="WIIxCO3e-V3OqHyJZPW5-1" target="WIIxCO3e-V3OqHyJZPW5-31">
          <mxGeometry x="677" y="-24" as="geometry">
            <mxPoint x="677" y="126" as="targetPoint" />
          </mxGeometry>
        </mxCell>
        <mxCell id="WIIxCO3e-V3OqHyJZPW5-36" style="edgeStyle=orthogonalEdgeStyle;rounded=0;orthogonalLoop=1;jettySize=auto;html=1;endArrow=blockThin;endFill=0;strokeWidth=4;curved=1;fontFamily=Gowun Dodum;exitX=1;exitY=0.5;exitDx=0;exitDy=0;exitPerimeter=0;entryX=0;entryY=0.5;entryDx=0;entryDy=0;entryPerimeter=0;fontSource=https%3A%2F%2Ffonts.googleapis.com%2Fcss%3Ffamily%3DGowun%2BDodum;" edge="1" parent="1" source="WIIxCO3e-V3OqHyJZPW5-8" target="WIIxCO3e-V3OqHyJZPW5-31">
          <mxGeometry relative="1" as="geometry">
            <mxPoint x="602" y="328" as="sourcePoint" />
            <mxPoint x="648" y="304" as="targetPoint" />
          </mxGeometry>
        </mxCell>
        <mxCell id="WIIxCO3e-V3OqHyJZPW5-38" value="local" style="text;html=1;strokeColor=none;fillColor=none;align=left;verticalAlign=middle;whiteSpace=wrap;overflow=hidden;fontSize=14;fontStyle=1;fontFamily=Gowun Dodum;fontSource=https%3A%2F%2Ffonts.googleapis.com%2Fcss%3Ffamily%3DGowun%2BDodum;rotation=0;container=0;" vertex="1" parent="1">
          <mxGeometry x="424" y="-220" width="91" height="20" as="geometry" />
        </mxCell>
        <mxCell id="WIIxCO3e-V3OqHyJZPW5-39" value="개발자의 Local PC" style="text;html=1;strokeColor=none;fillColor=none;align=left;verticalAlign=middle;whiteSpace=wrap;overflow=hidden;fontSize=14;fontStyle=0;fontColor=#009900;fontFamily=Gowun Dodum;fontSource=https%3A%2F%2Ffonts.googleapis.com%2Fcss%3Ffamily%3DGowun%2BDodum;rotation=0;container=0;" vertex="1" parent="1">
          <mxGeometry x="422" y="-200" width="240" height="20" as="geometry" />
        </mxCell>
        <mxCell id="WIIxCO3e-V3OqHyJZPW5-40" value="보조 브랜치" style="text;html=1;strokeColor=none;fillColor=none;align=left;verticalAlign=middle;whiteSpace=wrap;overflow=hidden;fontSize=14;fontStyle=0;fontColor=#009900;fontFamily=Gowun Dodum;fontSource=https%3A%2F%2Ffonts.googleapis.com%2Fcss%3Ffamily%3DGowun%2BDodum;rotation=0;container=0;" vertex="1" parent="1">
          <mxGeometry x="560.75" y="-200" width="240" height="20" as="geometry" />
        </mxCell>
        <mxCell id="WIIxCO3e-V3OqHyJZPW5-41" value="feature" style="text;html=1;strokeColor=none;fillColor=none;align=left;verticalAlign=middle;whiteSpace=wrap;overflow=hidden;fontSize=14;fontStyle=1;fontFamily=Gowun Dodum;fontSource=https%3A%2F%2Ffonts.googleapis.com%2Fcss%3Ffamily%3DGowun%2BDodum;rotation=0;container=0;" vertex="1" parent="1">
          <mxGeometry x="562.75" y="-220" width="240" height="20" as="geometry" />
        </mxCell>
        <mxCell id="WIIxCO3e-V3OqHyJZPW5-42" value="개발" style="text;html=1;strokeColor=none;fillColor=none;align=left;verticalAlign=middle;whiteSpace=wrap;overflow=hidden;fontSize=14;fontStyle=0;fontColor=#009900;fontFamily=Gowun Dodum;fontSource=https%3A%2F%2Ffonts.googleapis.com%2Fcss%3Ffamily%3DGowun%2BDodum;rotation=0;container=0;" vertex="1" parent="1">
          <mxGeometry x="656" y="-200" width="146.75" height="20" as="geometry" />
        </mxCell>
        <mxCell id="WIIxCO3e-V3OqHyJZPW5-43" value="develop" style="text;html=1;strokeColor=none;fillColor=none;align=center;verticalAlign=middle;whiteSpace=wrap;overflow=hidden;fontSize=14;fontStyle=1;fontFamily=Gowun Dodum;fontSource=https%3A%2F%2Ffonts.googleapis.com%2Fcss%3Ffamily%3DGowun%2BDodum;rotation=0;container=0;" vertex="1" parent="1">
          <mxGeometry x="658" y="-230" width="50" height="42" as="geometry" />
        </mxCell>
      </root>
    </mxGraphModel>
  </diagram>
  <diagram id="ACoJFRhspco26N80TmIc" name="RELEASE까지">
    <mxGraphModel dx="1346" dy="1925" grid="1" gridSize="10" guides="1" tooltips="1" connect="1" arrows="1" fold="1" page="1" pageScale="1" pageWidth="827" pageHeight="1169" math="0" shadow="0">
      <root>
        <mxCell id="0" />
        <mxCell id="1" parent="0" />
        <mxCell id="3LlVVKdeGitCBVTYPXvX-1" value="" style="verticalLabelPosition=bottom;verticalAlign=top;html=1;strokeWidth=4;shape=mxgraph.flowchart.on-page_reference;plain-blue;gradientColor=none;fillColor=#B5E3Fe;strokeColor=#000000;fontFamily=Gowun Dodum;fontSource=https%3A%2F%2Ffonts.googleapis.com%2Fcss%3Ffamily%3DGowun%2BDodum;rotation=90;container=0;" vertex="1" parent="1">
          <mxGeometry x="662" y="-54" width="30" height="30" as="geometry" />
        </mxCell>
        <mxCell id="3LlVVKdeGitCBVTYPXvX-2" value="" style="verticalLabelPosition=bottom;verticalAlign=top;html=1;strokeWidth=4;shape=mxgraph.flowchart.on-page_reference;plain-blue;gradientColor=none;strokeColor=#000000;fillColor=#B5E3FE;fontFamily=Gowun Dodum;fontSource=https%3A%2F%2Ffonts.googleapis.com%2Fcss%3Ffamily%3DGowun%2BDodum;rotation=90;container=0;" vertex="1" parent="1">
          <mxGeometry x="662" y="505" width="30" height="30" as="geometry" />
        </mxCell>
        <mxCell id="3LlVVKdeGitCBVTYPXvX-3" value="" style="verticalLabelPosition=bottom;verticalAlign=top;html=1;strokeWidth=4;shape=mxgraph.flowchart.on-page_reference;plain-blue;gradientColor=none;strokeColor=#33001A;fillColor=#B5E3FE;fontFamily=Gowun Dodum;fontSource=https%3A%2F%2Ffonts.googleapis.com%2Fcss%3Ffamily%3DGowun%2BDodum;rotation=90;container=0;" vertex="1" parent="1">
          <mxGeometry x="662" y="757" width="30" height="30" as="geometry" />
        </mxCell>
        <mxCell id="3LlVVKdeGitCBVTYPXvX-4" value="" style="edgeStyle=orthogonalEdgeStyle;curved=1;rounded=0;orthogonalLoop=1;jettySize=auto;html=1;endArrow=none;endFill=0;strokeWidth=4;entryX=0;entryY=0.5;entryDx=0;entryDy=0;entryPerimeter=0;fontFamily=Gowun Dodum;fontSource=https%3A%2F%2Ffonts.googleapis.com%2Fcss%3Ffamily%3DGowun%2BDodum;" edge="1" parent="1" source="3LlVVKdeGitCBVTYPXvX-2" target="3LlVVKdeGitCBVTYPXvX-3">
          <mxGeometry relative="1" as="geometry">
            <mxPoint x="677" y="617" as="targetPoint" />
          </mxGeometry>
        </mxCell>
        <mxCell id="3LlVVKdeGitCBVTYPXvX-5" value="" style="edgeStyle=orthogonalEdgeStyle;rounded=0;html=1;jettySize=auto;orthogonalLoop=1;strokeWidth=4;endArrow=none;endFill=0;fontFamily=Gowun Dodum;fontSource=https%3A%2F%2Ffonts.googleapis.com%2Fcss%3Ffamily%3DGowun%2BDodum;" edge="1" parent="1" target="3LlVVKdeGitCBVTYPXvX-1">
          <mxGeometry x="677" y="-124" as="geometry">
            <mxPoint x="677" y="-166" as="sourcePoint" />
          </mxGeometry>
        </mxCell>
        <mxCell id="3LlVVKdeGitCBVTYPXvX-6" value="" style="verticalLabelPosition=bottom;verticalAlign=top;html=1;strokeWidth=4;shape=mxgraph.flowchart.on-page_reference;plain-purple;gradientColor=none;strokeColor=#000000;fillColor=#E1D5E7;fontFamily=Gowun Dodum;fontColor=#e1d5e7;fontSource=https%3A%2F%2Ffonts.googleapis.com%2Fcss%3Ffamily%3DGowun%2BDodum;rotation=90;container=0;" vertex="1" parent="1">
          <mxGeometry x="577" y="24" width="30" height="30" as="geometry" />
        </mxCell>
        <mxCell id="3LlVVKdeGitCBVTYPXvX-7" style="edgeStyle=orthogonalEdgeStyle;curved=1;rounded=0;html=1;exitX=1;exitY=0.5;exitPerimeter=0;entryX=0;entryY=0.5;entryPerimeter=0;endArrow=blockThin;endFill=0;jettySize=auto;orthogonalLoop=1;strokeWidth=4;fontSize=15;fontFamily=Gowun Dodum;fontSource=https%3A%2F%2Ffonts.googleapis.com%2Fcss%3Ffamily%3DGowun%2BDodum;" edge="1" parent="1" source="3LlVVKdeGitCBVTYPXvX-1" target="3LlVVKdeGitCBVTYPXvX-6">
          <mxGeometry relative="1" as="geometry" />
        </mxCell>
        <mxCell id="3LlVVKdeGitCBVTYPXvX-8" value="" style="verticalLabelPosition=bottom;verticalAlign=top;html=1;strokeWidth=4;shape=mxgraph.flowchart.on-page_reference;plain-purple;gradientColor=none;strokeColor=#000000;fillColor=#E1D5E7;fontFamily=Gowun Dodum;fontSource=https%3A%2F%2Ffonts.googleapis.com%2Fcss%3Ffamily%3DGowun%2BDodum;rotation=90;container=0;" vertex="1" parent="1">
          <mxGeometry x="577" y="293" width="30" height="30" as="geometry" />
        </mxCell>
        <mxCell id="3LlVVKdeGitCBVTYPXvX-9" style="edgeStyle=orthogonalEdgeStyle;curved=1;rounded=0;html=1;exitX=1;exitY=0.5;exitPerimeter=0;endArrow=none;endFill=0;jettySize=auto;orthogonalLoop=1;strokeWidth=4;fontSize=15;fontFamily=Gowun Dodum;fontSource=https%3A%2F%2Ffonts.googleapis.com%2Fcss%3Ffamily%3DGowun%2BDodum;" edge="1" parent="1" source="3LlVVKdeGitCBVTYPXvX-6" target="3LlVVKdeGitCBVTYPXvX-8">
          <mxGeometry relative="1" as="geometry" />
        </mxCell>
        <mxCell id="3LlVVKdeGitCBVTYPXvX-10" style="edgeStyle=orthogonalEdgeStyle;curved=1;rounded=0;html=1;exitX=1;exitY=0.5;exitPerimeter=0;entryX=0;entryY=0.5;entryPerimeter=0;endArrow=blockThin;endFill=0;jettySize=auto;orthogonalLoop=1;strokeWidth=4;fontSize=15;fontFamily=Gowun Dodum;fontSource=https%3A%2F%2Ffonts.googleapis.com%2Fcss%3Ffamily%3DGowun%2BDodum;" edge="1" parent="1" source="3LlVVKdeGitCBVTYPXvX-11" target="3LlVVKdeGitCBVTYPXvX-2">
          <mxGeometry relative="1" as="geometry" />
        </mxCell>
        <mxCell id="3LlVVKdeGitCBVTYPXvX-11" value="" style="verticalLabelPosition=bottom;verticalAlign=top;html=1;strokeWidth=4;shape=mxgraph.flowchart.on-page_reference;plain-purple;gradientColor=none;strokeColor=#000000;fillColor=#E1D5E7;fontFamily=Gowun Dodum;fontSource=https%3A%2F%2Ffonts.googleapis.com%2Fcss%3Ffamily%3DGowun%2BDodum;rotation=90;container=0;" vertex="1" parent="1">
          <mxGeometry x="577" y="396" width="30" height="30" as="geometry" />
        </mxCell>
        <mxCell id="3LlVVKdeGitCBVTYPXvX-12" style="edgeStyle=orthogonalEdgeStyle;curved=1;rounded=0;html=1;exitX=1;exitY=0.5;exitPerimeter=0;entryX=0;entryY=0.5;entryPerimeter=0;endArrow=none;endFill=0;jettySize=auto;orthogonalLoop=1;strokeWidth=4;fontSize=15;fontFamily=Gowun Dodum;fontSource=https%3A%2F%2Ffonts.googleapis.com%2Fcss%3Ffamily%3DGowun%2BDodum;" edge="1" parent="1" source="3LlVVKdeGitCBVTYPXvX-8" target="3LlVVKdeGitCBVTYPXvX-11">
          <mxGeometry relative="1" as="geometry" />
        </mxCell>
        <mxCell id="3LlVVKdeGitCBVTYPXvX-13" style="edgeStyle=orthogonalEdgeStyle;rounded=0;orthogonalLoop=1;jettySize=auto;html=1;entryX=1;entryY=0.5;entryDx=0;entryDy=0;entryPerimeter=0;endArrow=none;endFill=0;strokeWidth=4;curved=1;fontFamily=Gowun Dodum;startArrow=blockThin;startFill=0;fontSource=https%3A%2F%2Ffonts.googleapis.com%2Fcss%3Ffamily%3DGowun%2BDodum;" edge="1" parent="1" source="3LlVVKdeGitCBVTYPXvX-14" target="3LlVVKdeGitCBVTYPXvX-6">
          <mxGeometry relative="1" as="geometry" />
        </mxCell>
        <mxCell id="3LlVVKdeGitCBVTYPXvX-14" value="" style="verticalLabelPosition=bottom;verticalAlign=top;html=1;strokeWidth=4;shape=mxgraph.flowchart.on-page_reference;plain-purple;gradientColor=none;strokeColor=#000000;fillColor=#D5E8D4;fontFamily=Gowun Dodum;fontSource=https%3A%2F%2Ffonts.googleapis.com%2Fcss%3Ffamily%3DGowun%2BDodum;rotation=90;container=0;" vertex="1" parent="1">
          <mxGeometry x="497" y="101" width="30" height="30" as="geometry" />
        </mxCell>
        <mxCell id="3LlVVKdeGitCBVTYPXvX-15" value="" style="verticalLabelPosition=bottom;verticalAlign=top;html=1;strokeWidth=4;shape=mxgraph.flowchart.on-page_reference;plain-purple;gradientColor=none;strokeColor=#000000;fillColor=#D5E8D4;fontFamily=Gowun Dodum;fontSource=https%3A%2F%2Ffonts.googleapis.com%2Fcss%3Ffamily%3DGowun%2BDodum;rotation=90;container=0;" vertex="1" parent="1">
          <mxGeometry x="497" y="199" width="30" height="30" as="geometry" />
        </mxCell>
        <mxCell id="3LlVVKdeGitCBVTYPXvX-16" value="" style="edgeStyle=orthogonalEdgeStyle;rounded=0;orthogonalLoop=1;jettySize=auto;html=1;endArrow=none;endFill=0;strokeWidth=4;fontFamily=Gowun Dodum;fontSource=https%3A%2F%2Ffonts.googleapis.com%2Fcss%3Ffamily%3DGowun%2BDodum;" edge="1" parent="1" source="3LlVVKdeGitCBVTYPXvX-14" target="3LlVVKdeGitCBVTYPXvX-15">
          <mxGeometry relative="1" as="geometry" />
        </mxCell>
        <mxCell id="3LlVVKdeGitCBVTYPXvX-17" value="" style="verticalLabelPosition=bottom;verticalAlign=top;html=1;strokeWidth=4;shape=mxgraph.flowchart.on-page_reference;plain-purple;gradientColor=none;strokeColor=#000000;fillColor=#D5E8D4;fontFamily=Gowun Dodum;fontSource=https%3A%2F%2Ffonts.googleapis.com%2Fcss%3Ffamily%3DGowun%2BDodum;rotation=90;container=0;" vertex="1" parent="1">
          <mxGeometry x="497" y="509" width="30" height="30" as="geometry" />
        </mxCell>
        <mxCell id="3LlVVKdeGitCBVTYPXvX-18" value="" style="edgeStyle=orthogonalEdgeStyle;curved=1;rounded=0;orthogonalLoop=1;jettySize=auto;html=1;endArrow=none;endFill=0;strokeWidth=4;fontFamily=Gowun Dodum;fontSource=https%3A%2F%2Ffonts.googleapis.com%2Fcss%3Ffamily%3DGowun%2BDodum;" edge="1" parent="1" source="3LlVVKdeGitCBVTYPXvX-15" target="3LlVVKdeGitCBVTYPXvX-17">
          <mxGeometry relative="1" as="geometry" />
        </mxCell>
        <mxCell id="3LlVVKdeGitCBVTYPXvX-19" value="" style="verticalLabelPosition=bottom;verticalAlign=top;html=1;strokeWidth=4;shape=mxgraph.flowchart.on-page_reference;plain-purple;gradientColor=none;strokeColor=#000000;fillColor=#D5E8D4;fontFamily=Gowun Dodum;fontSource=https%3A%2F%2Ffonts.googleapis.com%2Fcss%3Ffamily%3DGowun%2BDodum;rotation=90;container=0;" vertex="1" parent="1">
          <mxGeometry x="497" y="611" width="30" height="30" as="geometry" />
        </mxCell>
        <mxCell id="3LlVVKdeGitCBVTYPXvX-20" value="" style="edgeStyle=orthogonalEdgeStyle;curved=1;rounded=0;orthogonalLoop=1;jettySize=auto;html=1;endArrow=none;endFill=0;strokeWidth=4;fontFamily=Gowun Dodum;fontColor=#009900;fontSource=https%3A%2F%2Ffonts.googleapis.com%2Fcss%3Ffamily%3DGowun%2BDodum;" edge="1" parent="1" source="3LlVVKdeGitCBVTYPXvX-17" target="3LlVVKdeGitCBVTYPXvX-19">
          <mxGeometry relative="1" as="geometry" />
        </mxCell>
        <mxCell id="3LlVVKdeGitCBVTYPXvX-21" value="" style="endArrow=classic;html=1;strokeWidth=1;fontFamily=Gowun Dodum;fontColor=#009900;fontSource=https%3A%2F%2Ffonts.googleapis.com%2Fcss%3Ffamily%3DGowun%2BDodum;" edge="1" parent="1">
          <mxGeometry width="50" height="50" relative="1" as="geometry">
            <mxPoint x="593" y="-148" as="sourcePoint" />
            <mxPoint x="593" y="-28" as="targetPoint" />
          </mxGeometry>
        </mxCell>
        <mxCell id="3LlVVKdeGitCBVTYPXvX-22" value="" style="edgeStyle=orthogonalEdgeStyle;curved=1;rounded=0;orthogonalLoop=1;jettySize=auto;html=1;endArrow=none;endFill=0;strokeWidth=4;fontFamily=Gowun Dodum;fontColor=#009900;exitX=1;exitY=0.5;exitDx=0;exitDy=0;exitPerimeter=0;fontSource=https%3A%2F%2Ffonts.googleapis.com%2Fcss%3Ffamily%3DGowun%2BDodum;" edge="1" parent="1" source="3LlVVKdeGitCBVTYPXvX-11" target="3LlVVKdeGitCBVTYPXvX-23">
          <mxGeometry relative="1" as="geometry">
            <mxPoint x="592" y="620" as="sourcePoint" />
          </mxGeometry>
        </mxCell>
        <mxCell id="3LlVVKdeGitCBVTYPXvX-23" value="" style="verticalLabelPosition=bottom;verticalAlign=top;html=1;strokeWidth=4;shape=mxgraph.flowchart.on-page_reference;plain-purple;gradientColor=none;strokeColor=#000000;fillColor=#E1D5E7;fontFamily=Gowun Dodum;fontSource=https%3A%2F%2Ffonts.googleapis.com%2Fcss%3Ffamily%3DGowun%2BDodum;rotation=90;container=0;" vertex="1" parent="1">
          <mxGeometry x="577" y="680" width="30" height="30" as="geometry" />
        </mxCell>
        <mxCell id="3LlVVKdeGitCBVTYPXvX-24" style="edgeStyle=orthogonalEdgeStyle;curved=1;rounded=0;orthogonalLoop=1;jettySize=auto;html=1;entryX=0;entryY=0.5;entryDx=0;entryDy=0;entryPerimeter=0;endArrow=blockThin;endFill=0;strokeWidth=4;fontFamily=Gowun Dodum;fontColor=#009900;fontSource=https%3A%2F%2Ffonts.googleapis.com%2Fcss%3Ffamily%3DGowun%2BDodum;" edge="1" parent="1" source="3LlVVKdeGitCBVTYPXvX-19" target="3LlVVKdeGitCBVTYPXvX-23">
          <mxGeometry relative="1" as="geometry" />
        </mxCell>
        <mxCell id="3LlVVKdeGitCBVTYPXvX-26" value="" style="edgeStyle=orthogonalEdgeStyle;rounded=0;orthogonalLoop=1;jettySize=auto;html=1;fontSize=15;endArrow=none;endFill=0;strokeWidth=4;entryX=0;entryY=0.5;entryDx=0;entryDy=0;entryPerimeter=0;fontFamily=Gowun Dodum;fontSource=https%3A%2F%2Ffonts.googleapis.com%2Fcss%3Ffamily%3DGowun%2BDodum;" edge="1" parent="1" source="3LlVVKdeGitCBVTYPXvX-27" target="3LlVVKdeGitCBVTYPXvX-2">
          <mxGeometry relative="1" as="geometry">
            <mxPoint x="677" y="443" as="targetPoint" />
          </mxGeometry>
        </mxCell>
        <mxCell id="3LlVVKdeGitCBVTYPXvX-27" value="" style="verticalLabelPosition=bottom;verticalAlign=top;html=1;strokeWidth=4;shape=mxgraph.flowchart.on-page_reference;plain-blue;gradientColor=none;strokeColor=#000000;fillColor=#B5E3FE;fontFamily=Gowun Dodum;fontSource=https%3A%2F%2Ffonts.googleapis.com%2Fcss%3Ffamily%3DGowun%2BDodum;rotation=90;container=0;" vertex="1" parent="1">
          <mxGeometry x="662" y="362" width="30" height="30" as="geometry" />
        </mxCell>
        <mxCell id="3LlVVKdeGitCBVTYPXvX-28" value="" style="endArrow=classic;html=1;strokeWidth=1;fontFamily=Gowun Dodum;fontColor=#009900;fontSource=https%3A%2F%2Ffonts.googleapis.com%2Fcss%3Ffamily%3DGowun%2BDodum;" edge="1" parent="1">
          <mxGeometry width="50" height="50" relative="1" as="geometry">
            <mxPoint x="504" y="-119" as="sourcePoint" />
            <mxPoint x="504" y="71" as="targetPoint" />
          </mxGeometry>
        </mxCell>
        <mxCell id="3LlVVKdeGitCBVTYPXvX-29" style="edgeStyle=orthogonalEdgeStyle;rounded=0;orthogonalLoop=1;jettySize=auto;html=1;entryX=0;entryY=0.5;entryDx=0;entryDy=0;entryPerimeter=0;endArrow=blockThin;endFill=0;strokeWidth=4;curved=1;fontFamily=Gowun Dodum;fontSource=https%3A%2F%2Ffonts.googleapis.com%2Fcss%3Ffamily%3DGowun%2BDodum;" edge="1" parent="1" target="3LlVVKdeGitCBVTYPXvX-8">
          <mxGeometry relative="1" as="geometry">
            <mxPoint x="513" y="229" as="sourcePoint" />
            <mxPoint x="593" y="276" as="targetPoint" />
            <Array as="points">
              <mxPoint x="513" y="256" />
              <mxPoint x="593" y="256" />
            </Array>
          </mxGeometry>
        </mxCell>
        <mxCell id="3LlVVKdeGitCBVTYPXvX-30" style="edgeStyle=orthogonalEdgeStyle;curved=1;rounded=0;html=1;endArrow=blockThin;endFill=0;jettySize=auto;orthogonalLoop=1;strokeWidth=4;fontSize=15;fontFamily=Gowun Dodum;exitX=1;exitY=0.5;exitDx=0;exitDy=0;exitPerimeter=0;entryX=0;entryY=0.5;entryDx=0;entryDy=0;entryPerimeter=0;fontSource=https%3A%2F%2Ffonts.googleapis.com%2Fcss%3Ffamily%3DGowun%2BDodum;" edge="1" parent="1" source="3LlVVKdeGitCBVTYPXvX-11" target="3LlVVKdeGitCBVTYPXvX-17">
          <mxGeometry relative="1" as="geometry">
            <mxPoint x="577" y="328" as="sourcePoint" />
            <mxPoint x="528" y="354" as="targetPoint" />
          </mxGeometry>
        </mxCell>
        <mxCell id="3LlVVKdeGitCBVTYPXvX-31" value="" style="edgeStyle=orthogonalEdgeStyle;rounded=0;html=1;jettySize=auto;orthogonalLoop=1;plain-blue;endArrow=none;endFill=0;strokeWidth=4;strokeColor=#000000;entryX=0;entryY=0.5;entryDx=0;entryDy=0;entryPerimeter=0;fontFamily=Gowun Dodum;fontSource=https%3A%2F%2Ffonts.googleapis.com%2Fcss%3Ffamily%3DGowun%2BDodum;" edge="1" parent="1" source="3LlVVKdeGitCBVTYPXvX-1" target="3LlVVKdeGitCBVTYPXvX-27">
          <mxGeometry x="677" y="-24" as="geometry">
            <mxPoint x="677" y="126" as="targetPoint" />
          </mxGeometry>
        </mxCell>
        <mxCell id="3LlVVKdeGitCBVTYPXvX-32" style="edgeStyle=orthogonalEdgeStyle;rounded=0;orthogonalLoop=1;jettySize=auto;html=1;endArrow=blockThin;endFill=0;strokeWidth=4;curved=1;fontFamily=Gowun Dodum;exitX=1;exitY=0.5;exitDx=0;exitDy=0;exitPerimeter=0;entryX=0;entryY=0.5;entryDx=0;entryDy=0;entryPerimeter=0;fontSource=https%3A%2F%2Ffonts.googleapis.com%2Fcss%3Ffamily%3DGowun%2BDodum;" edge="1" parent="1" source="3LlVVKdeGitCBVTYPXvX-8" target="3LlVVKdeGitCBVTYPXvX-27">
          <mxGeometry relative="1" as="geometry">
            <mxPoint x="602" y="328" as="sourcePoint" />
            <mxPoint x="648" y="304" as="targetPoint" />
          </mxGeometry>
        </mxCell>
        <mxCell id="3LlVVKdeGitCBVTYPXvX-33" value="local" style="text;html=1;strokeColor=none;fillColor=none;align=left;verticalAlign=middle;whiteSpace=wrap;overflow=hidden;fontSize=14;fontStyle=1;fontFamily=Gowun Dodum;fontSource=https%3A%2F%2Ffonts.googleapis.com%2Fcss%3Ffamily%3DGowun%2BDodum;rotation=0;container=0;" vertex="1" parent="1">
          <mxGeometry x="424" y="-220" width="91" height="20" as="geometry" />
        </mxCell>
        <mxCell id="3LlVVKdeGitCBVTYPXvX-34" value="개발자의 Local PC" style="text;html=1;strokeColor=none;fillColor=none;align=left;verticalAlign=middle;whiteSpace=wrap;overflow=hidden;fontSize=14;fontStyle=0;fontColor=#009900;fontFamily=Gowun Dodum;fontSource=https%3A%2F%2Ffonts.googleapis.com%2Fcss%3Ffamily%3DGowun%2BDodum;rotation=0;container=0;" vertex="1" parent="1">
          <mxGeometry x="422" y="-200" width="240" height="20" as="geometry" />
        </mxCell>
        <mxCell id="3LlVVKdeGitCBVTYPXvX-35" value="보조 브랜치" style="text;html=1;strokeColor=none;fillColor=none;align=left;verticalAlign=middle;whiteSpace=wrap;overflow=hidden;fontSize=14;fontStyle=0;fontColor=#009900;fontFamily=Gowun Dodum;fontSource=https%3A%2F%2Ffonts.googleapis.com%2Fcss%3Ffamily%3DGowun%2BDodum;rotation=0;container=0;" vertex="1" parent="1">
          <mxGeometry x="560.75" y="-200" width="240" height="20" as="geometry" />
        </mxCell>
        <mxCell id="3LlVVKdeGitCBVTYPXvX-36" value="feature" style="text;html=1;strokeColor=none;fillColor=none;align=left;verticalAlign=middle;whiteSpace=wrap;overflow=hidden;fontSize=14;fontStyle=1;fontFamily=Gowun Dodum;fontSource=https%3A%2F%2Ffonts.googleapis.com%2Fcss%3Ffamily%3DGowun%2BDodum;rotation=0;container=0;" vertex="1" parent="1">
          <mxGeometry x="562.75" y="-220" width="240" height="20" as="geometry" />
        </mxCell>
        <mxCell id="3LlVVKdeGitCBVTYPXvX-37" value="통시/운영 배포" style="text;html=1;strokeColor=none;fillColor=none;align=left;verticalAlign=middle;whiteSpace=wrap;overflow=hidden;fontSize=14;fontStyle=0;fontColor=#009900;fontFamily=Gowun Dodum;fontSource=https%3A%2F%2Ffonts.googleapis.com%2Fcss%3Ffamily%3DGowun%2BDodum;rotation=0;container=0;" vertex="1" parent="1">
          <mxGeometry x="656" y="-200" width="146.75" height="20" as="geometry" />
        </mxCell>
        <mxCell id="3LlVVKdeGitCBVTYPXvX-38" value="develop" style="text;html=1;strokeColor=none;fillColor=none;align=center;verticalAlign=middle;whiteSpace=wrap;overflow=hidden;fontSize=14;fontStyle=1;fontFamily=Gowun Dodum;fontSource=https%3A%2F%2Ffonts.googleapis.com%2Fcss%3Ffamily%3DGowun%2BDodum;rotation=0;container=0;" vertex="1" parent="1">
          <mxGeometry x="658" y="-230" width="50" height="42" as="geometry" />
        </mxCell>
        <mxCell id="0mcRA4HMssQuvIetIEa5-10" value="" style="verticalLabelPosition=bottom;verticalAlign=top;html=1;strokeWidth=4;shape=mxgraph.flowchart.on-page_reference;plain-blue;gradientColor=none;strokeColor=#000000;fillColor=#8AD33C;fontFamily=Gowun Dodum;fontSource=https%3A%2F%2Ffonts.googleapis.com%2Fcss%3Ffamily%3DGowun%2BDodum;rotation=90;container=0;" vertex="1" parent="1">
          <mxGeometry x="750" y="506" width="30" height="30" as="geometry" />
        </mxCell>
        <mxCell id="0mcRA4HMssQuvIetIEa5-11" value="" style="verticalLabelPosition=bottom;verticalAlign=top;html=1;strokeWidth=4;shape=mxgraph.flowchart.on-page_reference;plain-blue;gradientColor=none;strokeColor=#33001A;fillColor=#8AD33C;fontFamily=Gowun Dodum;fontSource=https%3A%2F%2Ffonts.googleapis.com%2Fcss%3Ffamily%3DGowun%2BDodum;rotation=90;container=0;" vertex="1" parent="1">
          <mxGeometry x="750" y="758" width="30" height="30" as="geometry" />
        </mxCell>
        <mxCell id="0mcRA4HMssQuvIetIEa5-12" value="" style="edgeStyle=orthogonalEdgeStyle;curved=1;rounded=0;orthogonalLoop=1;jettySize=auto;html=1;endArrow=none;endFill=0;strokeWidth=4;entryX=0;entryY=0.5;entryDx=0;entryDy=0;entryPerimeter=0;fontFamily=Gowun Dodum;fontSource=https%3A%2F%2Ffonts.googleapis.com%2Fcss%3Ffamily%3DGowun%2BDodum;" edge="1" parent="1" source="0mcRA4HMssQuvIetIEa5-10" target="0mcRA4HMssQuvIetIEa5-11">
          <mxGeometry relative="1" as="geometry">
            <mxPoint x="765" y="618" as="targetPoint" />
          </mxGeometry>
        </mxCell>
        <mxCell id="0mcRA4HMssQuvIetIEa5-14" value="" style="edgeStyle=orthogonalEdgeStyle;rounded=0;orthogonalLoop=1;jettySize=auto;html=1;fontSize=15;endArrow=none;endFill=0;strokeWidth=4;entryX=0;entryY=0.5;entryDx=0;entryDy=0;entryPerimeter=0;fontFamily=Gowun Dodum;fontSource=https%3A%2F%2Ffonts.googleapis.com%2Fcss%3Ffamily%3DGowun%2BDodum;" edge="1" parent="1" source="0mcRA4HMssQuvIetIEa5-15" target="0mcRA4HMssQuvIetIEa5-10">
          <mxGeometry relative="1" as="geometry">
            <mxPoint x="765" y="444" as="targetPoint" />
          </mxGeometry>
        </mxCell>
        <mxCell id="0mcRA4HMssQuvIetIEa5-15" value="" style="verticalLabelPosition=bottom;verticalAlign=top;html=1;strokeWidth=4;shape=mxgraph.flowchart.on-page_reference;plain-blue;gradientColor=none;strokeColor=#000000;fillColor=#8AD33C;fontFamily=Gowun Dodum;fontSource=https%3A%2F%2Ffonts.googleapis.com%2Fcss%3Ffamily%3DGowun%2BDodum;rotation=90;container=0;" vertex="1" parent="1">
          <mxGeometry x="750" y="413" width="30" height="30" as="geometry" />
        </mxCell>
        <mxCell id="0mcRA4HMssQuvIetIEa5-18" style="edgeStyle=orthogonalEdgeStyle;rounded=0;orthogonalLoop=1;jettySize=auto;html=1;endArrow=blockThin;endFill=0;strokeWidth=4;curved=1;fontFamily=Gowun Dodum;exitX=0.5;exitY=0;exitDx=0;exitDy=0;exitPerimeter=0;entryX=0;entryY=0.5;entryDx=0;entryDy=0;entryPerimeter=0;fontSource=https%3A%2F%2Ffonts.googleapis.com%2Fcss%3Ffamily%3DGowun%2BDodum;" edge="1" parent="1" source="3LlVVKdeGitCBVTYPXvX-27">
          <mxGeometry relative="1" as="geometry">
            <mxPoint x="653" y="377" as="sourcePoint" />
            <mxPoint x="763.69" y="413" as="targetPoint" />
          </mxGeometry>
        </mxCell>
        <mxCell id="0mcRA4HMssQuvIetIEa5-31" value="" style="group" vertex="1" connectable="0" parent="1">
          <mxGeometry x="827" y="-260" width="50" height="1017" as="geometry" />
        </mxCell>
        <mxCell id="0mcRA4HMssQuvIetIEa5-32" style="edgeStyle=orthogonalEdgeStyle;rounded=0;orthogonalLoop=1;jettySize=auto;html=1;exitX=0.145;exitY=0.855;exitDx=0;exitDy=0;exitPerimeter=0;fontFamily=Gowun Dodum;fontSource=https%3A%2F%2Ffonts.googleapis.com%2Fcss%3Ffamily%3DGowun%2BDodum;fontColor=#e1d5e7;startArrow=blockThin;startFill=0;endArrow=blockThin;endFill=0;" edge="1" parent="0mcRA4HMssQuvIetIEa5-31" source="0mcRA4HMssQuvIetIEa5-22">
          <mxGeometry relative="1" as="geometry">
            <mxPoint x="13" y="210" as="targetPoint" />
          </mxGeometry>
        </mxCell>
        <mxCell id="0mcRA4HMssQuvIetIEa5-22" value="" style="verticalLabelPosition=bottom;verticalAlign=top;html=1;strokeWidth=4;shape=mxgraph.flowchart.on-page_reference;fillColor=#ffe6cc;strokeColor=#000000;fontFamily=Gowun Dodum;fontSource=https%3A%2F%2Ffonts.googleapis.com%2Fcss%3Ffamily%3DGowun%2BDodum;rotation=90;container=0;" vertex="1" parent="0mcRA4HMssQuvIetIEa5-31">
          <mxGeometry x="4" y="176" width="30" height="30" as="geometry" />
        </mxCell>
        <mxCell id="0mcRA4HMssQuvIetIEa5-23" value="" style="verticalLabelPosition=bottom;verticalAlign=top;html=1;strokeWidth=4;shape=mxgraph.flowchart.on-page_reference;plain-blue;gradientColor=none;strokeColor=#000000;fillColor=#ffe6cc;fontFamily=Gowun Dodum;fontSource=https%3A%2F%2Ffonts.googleapis.com%2Fcss%3Ffamily%3DGowun%2BDodum;rotation=90;container=0;" vertex="1" parent="0mcRA4HMssQuvIetIEa5-31">
          <mxGeometry x="4" y="815" width="30" height="30" as="geometry" />
        </mxCell>
        <mxCell id="0mcRA4HMssQuvIetIEa5-24" value="" style="verticalLabelPosition=bottom;verticalAlign=top;html=1;strokeWidth=4;shape=mxgraph.flowchart.on-page_reference;plain-blue;gradientColor=none;strokeColor=#33001A;fillColor=#B5E3FE;fontFamily=Gowun Dodum;fontSource=https%3A%2F%2Ffonts.googleapis.com%2Fcss%3Ffamily%3DGowun%2BDodum;rotation=90;container=0;" vertex="1" parent="0mcRA4HMssQuvIetIEa5-31">
          <mxGeometry x="4" y="1067" width="30" height="30" as="geometry" />
        </mxCell>
        <mxCell id="0mcRA4HMssQuvIetIEa5-25" value="" style="edgeStyle=orthogonalEdgeStyle;curved=1;rounded=0;orthogonalLoop=1;jettySize=auto;html=1;endArrow=none;endFill=0;strokeWidth=4;entryX=0;entryY=0.5;entryDx=0;entryDy=0;entryPerimeter=0;fontFamily=Gowun Dodum;fontSource=https%3A%2F%2Ffonts.googleapis.com%2Fcss%3Ffamily%3DGowun%2BDodum;" edge="1" parent="0mcRA4HMssQuvIetIEa5-31" source="0mcRA4HMssQuvIetIEa5-23" target="0mcRA4HMssQuvIetIEa5-24">
          <mxGeometry relative="1" as="geometry">
            <mxPoint x="19" y="927" as="targetPoint" />
          </mxGeometry>
        </mxCell>
        <mxCell id="0mcRA4HMssQuvIetIEa5-26" value="" style="edgeStyle=orthogonalEdgeStyle;rounded=0;html=1;jettySize=auto;orthogonalLoop=1;strokeWidth=4;endArrow=none;endFill=0;fontFamily=Gowun Dodum;fontSource=https%3A%2F%2Ffonts.googleapis.com%2Fcss%3Ffamily%3DGowun%2BDodum;" edge="1" parent="0mcRA4HMssQuvIetIEa5-31" target="0mcRA4HMssQuvIetIEa5-22">
          <mxGeometry x="19" y="106" as="geometry">
            <mxPoint x="19" y="64" as="sourcePoint" />
          </mxGeometry>
        </mxCell>
        <mxCell id="0mcRA4HMssQuvIetIEa5-27" value="" style="edgeStyle=orthogonalEdgeStyle;rounded=0;orthogonalLoop=1;jettySize=auto;html=1;fontSize=15;endArrow=none;endFill=0;strokeWidth=4;entryX=0;entryY=0.5;entryDx=0;entryDy=0;entryPerimeter=0;fontFamily=Gowun Dodum;fontSource=https%3A%2F%2Ffonts.googleapis.com%2Fcss%3Ffamily%3DGowun%2BDodum;" edge="1" parent="0mcRA4HMssQuvIetIEa5-31" source="0mcRA4HMssQuvIetIEa5-28" target="0mcRA4HMssQuvIetIEa5-23">
          <mxGeometry relative="1" as="geometry">
            <mxPoint x="19" y="753" as="targetPoint" />
          </mxGeometry>
        </mxCell>
        <mxCell id="0mcRA4HMssQuvIetIEa5-28" value="" style="verticalLabelPosition=bottom;verticalAlign=top;html=1;strokeWidth=4;shape=mxgraph.flowchart.on-page_reference;strokeColor=#000000;fillColor=#ffe6cc;fontFamily=Gowun Dodum;fontSource=https%3A%2F%2Ffonts.googleapis.com%2Fcss%3Ffamily%3DGowun%2BDodum;rotation=90;container=0;" vertex="1" parent="0mcRA4HMssQuvIetIEa5-31">
          <mxGeometry x="4" y="672" width="30" height="30" as="geometry" />
        </mxCell>
        <mxCell id="0mcRA4HMssQuvIetIEa5-29" value="" style="edgeStyle=orthogonalEdgeStyle;rounded=0;html=1;jettySize=auto;orthogonalLoop=1;plain-blue;endArrow=none;endFill=0;strokeWidth=4;strokeColor=#000000;entryX=0;entryY=0.5;entryDx=0;entryDy=0;entryPerimeter=0;fontFamily=Gowun Dodum;fontSource=https%3A%2F%2Ffonts.googleapis.com%2Fcss%3Ffamily%3DGowun%2BDodum;" edge="1" parent="0mcRA4HMssQuvIetIEa5-31" source="0mcRA4HMssQuvIetIEa5-22" target="0mcRA4HMssQuvIetIEa5-28">
          <mxGeometry x="19" y="206" as="geometry">
            <mxPoint x="19" y="356" as="targetPoint" />
          </mxGeometry>
        </mxCell>
        <mxCell id="0mcRA4HMssQuvIetIEa5-30" value="master" style="text;html=1;strokeColor=none;fillColor=none;align=center;verticalAlign=middle;whiteSpace=wrap;overflow=hidden;fontSize=14;fontStyle=1;fontFamily=Gowun Dodum;fontSource=https%3A%2F%2Ffonts.googleapis.com%2Fcss%3Ffamily%3DGowun%2BDodum;rotation=0;container=0;" vertex="1" parent="0mcRA4HMssQuvIetIEa5-31">
          <mxGeometry width="50" height="42" as="geometry" />
        </mxCell>
        <mxCell id="0mcRA4HMssQuvIetIEa5-34" style="edgeStyle=orthogonalEdgeStyle;curved=1;rounded=0;html=1;exitX=0.5;exitY=1;exitPerimeter=0;endArrow=blockThin;endFill=0;jettySize=auto;orthogonalLoop=1;strokeWidth=4;fontSize=15;fontFamily=Gowun Dodum;fontSource=https%3A%2F%2Ffonts.googleapis.com%2Fcss%3Ffamily%3DGowun%2BDodum;exitDx=0;exitDy=0;entryX=0.5;entryY=0;entryDx=0;entryDy=0;entryPerimeter=0;" edge="1" parent="1" source="0mcRA4HMssQuvIetIEa5-22" target="3LlVVKdeGitCBVTYPXvX-1">
          <mxGeometry relative="1" as="geometry">
            <mxPoint x="793" y="-63" as="sourcePoint" />
            <mxPoint x="700" y="-40" as="targetPoint" />
            <Array as="points">
              <mxPoint x="831" y="-40" />
              <mxPoint x="762" y="-40" />
            </Array>
          </mxGeometry>
        </mxCell>
        <mxCell id="0mcRA4HMssQuvIetIEa5-35" value="release" style="text;html=1;strokeColor=none;fillColor=none;align=center;verticalAlign=middle;whiteSpace=wrap;overflow=hidden;fontSize=14;fontStyle=1;fontFamily=Gowun Dodum;fontSource=https%3A%2F%2Ffonts.googleapis.com%2Fcss%3Ffamily%3DGowun%2BDodum;rotation=0;container=0;" vertex="1" parent="1">
          <mxGeometry x="752.75" y="-231" width="50" height="42" as="geometry" />
        </mxCell>
        <mxCell id="9A3XXJc9LG9i2iD-2Tj4-1" value="Tag: 1.0.0" style="text;html=1;strokeColor=none;fillColor=none;align=center;verticalAlign=middle;whiteSpace=wrap;overflow=hidden;fontSize=14;fontFamily=Gowun Dodum;fontSource=https%3A%2F%2Ffonts.googleapis.com%2Fcss%3Ffamily%3DGowun%2BDodum;rotation=90;container=0;" vertex="1" parent="1">
          <mxGeometry x="850" y="-74" width="70" height="20" as="geometry" />
        </mxCell>
        <mxCell id="9A3XXJc9LG9i2iD-2Tj4-2" value="" style="edgeStyle=orthogonalEdgeStyle;rounded=0;orthogonalLoop=1;jettySize=auto;html=1;fontSize=12;fontColor=#000000;entryX=0;entryY=0.5;entryDx=0;entryDy=0;fontFamily=Gowun Dodum;fontSource=https%3A%2F%2Ffonts.googleapis.com%2Fcss%3Ffamily%3DGowun%2BDodum;" edge="1" parent="1" target="9A3XXJc9LG9i2iD-2Tj4-1">
          <mxGeometry relative="1" as="geometry">
            <mxPoint x="885" y="-119" as="targetPoint" />
            <Array as="points">
              <mxPoint x="885" y="-119" />
              <mxPoint x="885" y="-119" />
            </Array>
            <mxPoint x="885" y="-127" as="sourcePoint" />
          </mxGeometry>
        </mxCell>
        <mxCell id="9A3XXJc9LG9i2iD-2Tj4-3" style="edgeStyle=orthogonalEdgeStyle;rounded=0;orthogonalLoop=1;jettySize=auto;html=1;endArrow=blockThin;endFill=0;strokeWidth=4;curved=1;fontFamily=Gowun Dodum;exitX=0.5;exitY=0;exitDx=0;exitDy=0;exitPerimeter=0;entryX=0.5;entryY=0;entryDx=0;entryDy=0;entryPerimeter=0;fontSource=https%3A%2F%2Ffonts.googleapis.com%2Fcss%3Ffamily%3DGowun%2BDodum;" edge="1" parent="1" target="3LlVVKdeGitCBVTYPXvX-3">
          <mxGeometry relative="1" as="geometry">
            <mxPoint x="750" y="520" as="sourcePoint" />
            <mxPoint x="821.69" y="556" as="targetPoint" />
          </mxGeometry>
        </mxCell>
        <mxCell id="9A3XXJc9LG9i2iD-2Tj4-4" style="edgeStyle=orthogonalEdgeStyle;curved=1;rounded=0;html=1;exitX=0.5;exitY=0;exitPerimeter=0;entryX=0.5;entryY=1;entryPerimeter=0;endArrow=blockThin;endFill=0;jettySize=auto;orthogonalLoop=1;strokeWidth=4;fontSize=15;fontFamily=Gowun Dodum;fontSource=https%3A%2F%2Ffonts.googleapis.com%2Fcss%3Ffamily%3DGowun%2BDodum;exitDx=0;exitDy=0;entryDx=0;entryDy=0;" edge="1" parent="1" source="0mcRA4HMssQuvIetIEa5-10" target="0mcRA4HMssQuvIetIEa5-23">
          <mxGeometry relative="1" as="geometry">
            <mxPoint x="791.94" y="520" as="sourcePoint" />
            <mxPoint x="876.94" y="599" as="targetPoint" />
          </mxGeometry>
        </mxCell>
      </root>
    </mxGraphModel>
  </diagram>
  <diagram name="template" id="KGWr4U6l9x3G8_Un_4zQ">
    <mxGraphModel dx="1634" dy="919" grid="1" gridSize="10" guides="1" tooltips="1" connect="1" arrows="1" fold="1" page="1" pageScale="1" pageWidth="1100" pageHeight="850" math="0" shadow="0">
      <root>
        <mxCell id="h7Kx-A2-XrqdJ_c94fxc-0" />
        <mxCell id="h7Kx-A2-XrqdJ_c94fxc-1" parent="h7Kx-A2-XrqdJ_c94fxc-0" />
        <mxCell id="h7Kx-A2-XrqdJ_c94fxc-2" value="Hotfix Commit" style="text;html=1;strokeColor=none;fillColor=none;align=center;verticalAlign=middle;whiteSpace=wrap;overflow=hidden;fontFamily=Gowun Dodum;fontSource=https%3A%2F%2Ffonts.googleapis.com%2Fcss%3Ffamily%3DGowun%2BDodum;" parent="h7Kx-A2-XrqdJ_c94fxc-1" vertex="1">
          <mxGeometry x="427.25" y="226" width="80" height="30" as="geometry" />
        </mxCell>
        <mxCell id="h7Kx-A2-XrqdJ_c94fxc-3" value="" style="edgeStyle=orthogonalEdgeStyle;rounded=0;html=1;jettySize=auto;orthogonalLoop=1;plain-blue;endArrow=none;endFill=0;strokeWidth=4;strokeColor=#000000;entryX=0;entryY=0.5;entryDx=0;entryDy=0;entryPerimeter=0;fontFamily=Gowun Dodum;fontSource=https%3A%2F%2Ffonts.googleapis.com%2Fcss%3Ffamily%3DGowun%2BDodum;" parent="h7Kx-A2-XrqdJ_c94fxc-1" source="h7Kx-A2-XrqdJ_c94fxc-5" target="h7Kx-A2-XrqdJ_c94fxc-65" edge="1">
          <mxGeometry x="292.25" y="211" as="geometry">
            <mxPoint x="442.25" y="211" as="targetPoint" />
          </mxGeometry>
        </mxCell>
        <mxCell id="h7Kx-A2-XrqdJ_c94fxc-4" style="edgeStyle=orthogonalEdgeStyle;curved=1;rounded=0;html=1;exitX=1;exitY=0.5;exitPerimeter=0;entryX=0;entryY=0.5;entryPerimeter=0;endArrow=none;endFill=0;jettySize=auto;orthogonalLoop=1;strokeWidth=4;fontSize=15;fontFamily=Gowun Dodum;fontSource=https%3A%2F%2Ffonts.googleapis.com%2Fcss%3Ffamily%3DGowun%2BDodum;" parent="h7Kx-A2-XrqdJ_c94fxc-1" source="h7Kx-A2-XrqdJ_c94fxc-5" target="h7Kx-A2-XrqdJ_c94fxc-13" edge="1">
          <mxGeometry relative="1" as="geometry" />
        </mxCell>
        <mxCell id="h7Kx-A2-XrqdJ_c94fxc-5" value="" style="verticalLabelPosition=bottom;verticalAlign=top;html=1;strokeWidth=4;shape=mxgraph.flowchart.on-page_reference;plain-blue;gradientColor=none;fillColor=#B5E3Fe;strokeColor=#000000;fontFamily=Gowun Dodum;fontSource=https%3A%2F%2Ffonts.googleapis.com%2Fcss%3Ffamily%3DGowun%2BDodum;" parent="h7Kx-A2-XrqdJ_c94fxc-1" vertex="1">
          <mxGeometry x="262.25" y="196" width="30" height="30" as="geometry" />
        </mxCell>
        <mxCell id="h7Kx-A2-XrqdJ_c94fxc-6" value="" style="edgeStyle=orthogonalEdgeStyle;curved=1;rounded=0;orthogonalLoop=1;jettySize=auto;html=1;endArrow=none;endFill=0;strokeWidth=4;entryX=0;entryY=0.5;entryDx=0;entryDy=0;entryPerimeter=0;fontFamily=Gowun Dodum;fontSource=https%3A%2F%2Ffonts.googleapis.com%2Fcss%3Ffamily%3DGowun%2BDodum;" parent="h7Kx-A2-XrqdJ_c94fxc-1" source="h7Kx-A2-XrqdJ_c94fxc-8" target="h7Kx-A2-XrqdJ_c94fxc-9" edge="1">
          <mxGeometry relative="1" as="geometry">
            <mxPoint x="734.4999999999995" y="211" as="targetPoint" />
          </mxGeometry>
        </mxCell>
        <mxCell id="h7Kx-A2-XrqdJ_c94fxc-7" style="edgeStyle=orthogonalEdgeStyle;curved=1;rounded=0;orthogonalLoop=1;jettySize=auto;html=1;exitX=1;exitY=0.5;exitDx=0;exitDy=0;exitPerimeter=0;entryX=0;entryY=0.5;entryDx=0;entryDy=0;entryPerimeter=0;endArrow=none;endFill=0;strokeWidth=4;fontFamily=Gowun Dodum;fontColor=#009900;fontSource=https%3A%2F%2Ffonts.googleapis.com%2Fcss%3Ffamily%3DGowun%2BDodum;" parent="h7Kx-A2-XrqdJ_c94fxc-1" source="h7Kx-A2-XrqdJ_c94fxc-8" target="h7Kx-A2-XrqdJ_c94fxc-45" edge="1">
          <mxGeometry relative="1" as="geometry" />
        </mxCell>
        <mxCell id="h7Kx-A2-XrqdJ_c94fxc-8" value="" style="verticalLabelPosition=bottom;verticalAlign=top;html=1;strokeWidth=4;shape=mxgraph.flowchart.on-page_reference;plain-blue;gradientColor=none;strokeColor=#000000;fillColor=#B5E3FE;fontFamily=Gowun Dodum;fontSource=https%3A%2F%2Ffonts.googleapis.com%2Fcss%3Ffamily%3DGowun%2BDodum;" parent="h7Kx-A2-XrqdJ_c94fxc-1" vertex="1">
          <mxGeometry x="622.25" y="196" width="30" height="30" as="geometry" />
        </mxCell>
        <mxCell id="h7Kx-A2-XrqdJ_c94fxc-9" value="" style="verticalLabelPosition=bottom;verticalAlign=top;html=1;strokeWidth=4;shape=mxgraph.flowchart.on-page_reference;plain-blue;gradientColor=none;strokeColor=#33001A;fillColor=#B5E3FE;fontFamily=Gowun Dodum;fontSource=https%3A%2F%2Ffonts.googleapis.com%2Fcss%3Ffamily%3DGowun%2BDodum;" parent="h7Kx-A2-XrqdJ_c94fxc-1" vertex="1">
          <mxGeometry x="861.25" y="196" width="30" height="30" as="geometry" />
        </mxCell>
        <mxCell id="h7Kx-A2-XrqdJ_c94fxc-10" value="" style="edgeStyle=orthogonalEdgeStyle;rounded=0;html=1;jettySize=auto;orthogonalLoop=1;strokeWidth=4;endArrow=none;endFill=0;fontFamily=Gowun Dodum;fontSource=https%3A%2F%2Ffonts.googleapis.com%2Fcss%3Ffamily%3DGowun%2BDodum;" parent="h7Kx-A2-XrqdJ_c94fxc-1" target="h7Kx-A2-XrqdJ_c94fxc-5" edge="1">
          <mxGeometry x="192.25" y="211" as="geometry">
            <mxPoint x="150" y="211" as="sourcePoint" />
          </mxGeometry>
        </mxCell>
        <mxCell id="h7Kx-A2-XrqdJ_c94fxc-11" value="main" style="text;html=1;strokeColor=none;fillColor=none;align=center;verticalAlign=middle;whiteSpace=wrap;overflow=hidden;fontSize=14;fontStyle=1;fontFamily=Gowun Dodum;fontSource=https%3A%2F%2Ffonts.googleapis.com%2Fcss%3Ffamily%3DGowun%2BDodum;" parent="h7Kx-A2-XrqdJ_c94fxc-1" vertex="1">
          <mxGeometry x="83" y="190" width="50" height="42" as="geometry" />
        </mxCell>
        <mxCell id="h7Kx-A2-XrqdJ_c94fxc-12" style="edgeStyle=orthogonalEdgeStyle;curved=1;rounded=0;html=1;exitX=1;exitY=0.5;exitPerimeter=0;endArrow=none;endFill=0;jettySize=auto;orthogonalLoop=1;strokeWidth=4;fontSize=15;fontFamily=Gowun Dodum;fontSource=https%3A%2F%2Ffonts.googleapis.com%2Fcss%3Ffamily%3DGowun%2BDodum;" parent="h7Kx-A2-XrqdJ_c94fxc-1" source="h7Kx-A2-XrqdJ_c94fxc-13" target="h7Kx-A2-XrqdJ_c94fxc-15" edge="1">
          <mxGeometry relative="1" as="geometry" />
        </mxCell>
        <mxCell id="h7Kx-A2-XrqdJ_c94fxc-13" value="" style="verticalLabelPosition=bottom;verticalAlign=top;html=1;strokeWidth=4;shape=mxgraph.flowchart.on-page_reference;plain-purple;gradientColor=none;strokeColor=#000000;fillColor=#D5E8D4;fontFamily=Gowun Dodum;fontSource=https%3A%2F%2Ffonts.googleapis.com%2Fcss%3Ffamily%3DGowun%2BDodum;" parent="h7Kx-A2-XrqdJ_c94fxc-1" vertex="1">
          <mxGeometry x="339.75" y="281" width="30" height="30" as="geometry" />
        </mxCell>
        <mxCell id="h7Kx-A2-XrqdJ_c94fxc-14" style="edgeStyle=orthogonalEdgeStyle;curved=1;rounded=0;html=1;exitX=1;exitY=0.5;exitPerimeter=0;entryX=0;entryY=0.5;entryPerimeter=0;endArrow=none;endFill=0;jettySize=auto;orthogonalLoop=1;strokeWidth=4;fontSize=15;fontFamily=Gowun Dodum;fontSource=https%3A%2F%2Ffonts.googleapis.com%2Fcss%3Ffamily%3DGowun%2BDodum;" parent="h7Kx-A2-XrqdJ_c94fxc-1" source="h7Kx-A2-XrqdJ_c94fxc-15" target="h7Kx-A2-XrqdJ_c94fxc-17" edge="1">
          <mxGeometry relative="1" as="geometry" />
        </mxCell>
        <mxCell id="h7Kx-A2-XrqdJ_c94fxc-15" value="" style="verticalLabelPosition=bottom;verticalAlign=top;html=1;strokeWidth=4;shape=mxgraph.flowchart.on-page_reference;plain-purple;gradientColor=none;strokeColor=#000000;fillColor=#D5E8D4;fontFamily=Gowun Dodum;fontSource=https%3A%2F%2Ffonts.googleapis.com%2Fcss%3Ffamily%3DGowun%2BDodum;" parent="h7Kx-A2-XrqdJ_c94fxc-1" vertex="1">
          <mxGeometry x="446.75" y="281" width="30" height="30" as="geometry" />
        </mxCell>
        <mxCell id="h7Kx-A2-XrqdJ_c94fxc-16" style="edgeStyle=orthogonalEdgeStyle;curved=1;rounded=0;html=1;exitX=1;exitY=0.5;exitPerimeter=0;entryX=0;entryY=0.5;entryPerimeter=0;endArrow=none;endFill=0;jettySize=auto;orthogonalLoop=1;strokeWidth=4;fontSize=15;fontFamily=Gowun Dodum;fontSource=https%3A%2F%2Ffonts.googleapis.com%2Fcss%3Ffamily%3DGowun%2BDodum;" parent="h7Kx-A2-XrqdJ_c94fxc-1" source="h7Kx-A2-XrqdJ_c94fxc-17" target="h7Kx-A2-XrqdJ_c94fxc-8" edge="1">
          <mxGeometry relative="1" as="geometry" />
        </mxCell>
        <mxCell id="h7Kx-A2-XrqdJ_c94fxc-17" value="" style="verticalLabelPosition=bottom;verticalAlign=top;html=1;strokeWidth=4;shape=mxgraph.flowchart.on-page_reference;plain-purple;gradientColor=none;strokeColor=#000000;fillColor=#D5E8D4;fontFamily=Gowun Dodum;fontSource=https%3A%2F%2Ffonts.googleapis.com%2Fcss%3Ffamily%3DGowun%2BDodum;" parent="h7Kx-A2-XrqdJ_c94fxc-1" vertex="1">
          <mxGeometry x="549.75" y="281" width="30" height="30" as="geometry" />
        </mxCell>
        <mxCell id="h7Kx-A2-XrqdJ_c94fxc-18" value="1.1.0-release" style="text;html=1;strokeColor=none;fillColor=none;align=left;verticalAlign=middle;whiteSpace=wrap;overflow=hidden;fontSize=14;fontStyle=1;fontFamily=Gowun Dodum;fontSource=https%3A%2F%2Ffonts.googleapis.com%2Fcss%3Ffamily%3DGowun%2BDodum;" parent="h7Kx-A2-XrqdJ_c94fxc-1" vertex="1">
          <mxGeometry x="88.75" y="286" width="240" height="20" as="geometry" />
        </mxCell>
        <mxCell id="h7Kx-A2-XrqdJ_c94fxc-19" value="" style="edgeStyle=orthogonalEdgeStyle;rounded=0;orthogonalLoop=1;jettySize=auto;html=1;endArrow=none;endFill=0;strokeWidth=4;fontFamily=Gowun Dodum;fontSource=https%3A%2F%2Ffonts.googleapis.com%2Fcss%3Ffamily%3DGowun%2BDodum;" parent="h7Kx-A2-XrqdJ_c94fxc-1" source="h7Kx-A2-XrqdJ_c94fxc-22" target="h7Kx-A2-XrqdJ_c94fxc-24" edge="1">
          <mxGeometry relative="1" as="geometry" />
        </mxCell>
        <mxCell id="h7Kx-A2-XrqdJ_c94fxc-20" style="edgeStyle=orthogonalEdgeStyle;rounded=0;orthogonalLoop=1;jettySize=auto;html=1;entryX=1;entryY=0.5;entryDx=0;entryDy=0;entryPerimeter=0;endArrow=none;endFill=0;strokeWidth=4;curved=1;fontFamily=Gowun Dodum;fontSource=https%3A%2F%2Ffonts.googleapis.com%2Fcss%3Ffamily%3DGowun%2BDodum;" parent="h7Kx-A2-XrqdJ_c94fxc-1" source="h7Kx-A2-XrqdJ_c94fxc-22" target="h7Kx-A2-XrqdJ_c94fxc-13" edge="1">
          <mxGeometry relative="1" as="geometry" />
        </mxCell>
        <mxCell id="h7Kx-A2-XrqdJ_c94fxc-21" style="edgeStyle=orthogonalEdgeStyle;curved=1;rounded=0;orthogonalLoop=1;jettySize=auto;html=1;exitX=1;exitY=0.5;exitDx=0;exitDy=0;exitPerimeter=0;entryX=0;entryY=0.5;entryDx=0;entryDy=0;entryPerimeter=0;endArrow=none;endFill=0;strokeWidth=4;fontFamily=Gowun Dodum;fontColor=#009900;fontSource=https%3A%2F%2Ffonts.googleapis.com%2Fcss%3Ffamily%3DGowun%2BDodum;" parent="h7Kx-A2-XrqdJ_c94fxc-1" source="h7Kx-A2-XrqdJ_c94fxc-22" target="h7Kx-A2-XrqdJ_c94fxc-31" edge="1">
          <mxGeometry relative="1" as="geometry" />
        </mxCell>
        <mxCell id="h7Kx-A2-XrqdJ_c94fxc-22" value="" style="verticalLabelPosition=bottom;verticalAlign=top;html=1;strokeWidth=4;shape=mxgraph.flowchart.on-page_reference;plain-purple;gradientColor=none;strokeColor=#000000;fillColor=#D5E8D4;fontFamily=Gowun Dodum;fontSource=https%3A%2F%2Ffonts.googleapis.com%2Fcss%3Ffamily%3DGowun%2BDodum;" parent="h7Kx-A2-XrqdJ_c94fxc-1" vertex="1">
          <mxGeometry x="416.75" y="361" width="30" height="30" as="geometry" />
        </mxCell>
        <mxCell id="h7Kx-A2-XrqdJ_c94fxc-23" value="" style="edgeStyle=orthogonalEdgeStyle;curved=1;rounded=0;orthogonalLoop=1;jettySize=auto;html=1;endArrow=none;endFill=0;strokeWidth=4;fontFamily=Gowun Dodum;fontSource=https%3A%2F%2Ffonts.googleapis.com%2Fcss%3Ffamily%3DGowun%2BDodum;" parent="h7Kx-A2-XrqdJ_c94fxc-1" source="h7Kx-A2-XrqdJ_c94fxc-24" target="h7Kx-A2-XrqdJ_c94fxc-26" edge="1">
          <mxGeometry relative="1" as="geometry" />
        </mxCell>
        <mxCell id="h7Kx-A2-XrqdJ_c94fxc-24" value="" style="verticalLabelPosition=bottom;verticalAlign=top;html=1;strokeWidth=4;shape=mxgraph.flowchart.on-page_reference;plain-purple;gradientColor=none;strokeColor=#000000;fillColor=#D5E8D4;fontFamily=Gowun Dodum;fontSource=https%3A%2F%2Ffonts.googleapis.com%2Fcss%3Ffamily%3DGowun%2BDodum;" parent="h7Kx-A2-XrqdJ_c94fxc-1" vertex="1">
          <mxGeometry x="514.75" y="361" width="30" height="30" as="geometry" />
        </mxCell>
        <mxCell id="h7Kx-A2-XrqdJ_c94fxc-25" value="" style="edgeStyle=orthogonalEdgeStyle;curved=1;rounded=0;orthogonalLoop=1;jettySize=auto;html=1;endArrow=none;endFill=0;strokeWidth=4;fontFamily=Gowun Dodum;fontColor=#009900;fontSource=https%3A%2F%2Ffonts.googleapis.com%2Fcss%3Ffamily%3DGowun%2BDodum;" parent="h7Kx-A2-XrqdJ_c94fxc-1" source="h7Kx-A2-XrqdJ_c94fxc-26" target="h7Kx-A2-XrqdJ_c94fxc-28" edge="1">
          <mxGeometry relative="1" as="geometry" />
        </mxCell>
        <mxCell id="h7Kx-A2-XrqdJ_c94fxc-26" value="" style="verticalLabelPosition=bottom;verticalAlign=top;html=1;strokeWidth=4;shape=mxgraph.flowchart.on-page_reference;plain-purple;gradientColor=none;strokeColor=#000000;fillColor=#D5E8D4;fontFamily=Gowun Dodum;fontSource=https%3A%2F%2Ffonts.googleapis.com%2Fcss%3Ffamily%3DGowun%2BDodum;" parent="h7Kx-A2-XrqdJ_c94fxc-1" vertex="1">
          <mxGeometry x="594.75" y="361" width="30" height="30" as="geometry" />
        </mxCell>
        <mxCell id="h7Kx-A2-XrqdJ_c94fxc-27" style="edgeStyle=orthogonalEdgeStyle;curved=1;rounded=0;orthogonalLoop=1;jettySize=auto;html=1;entryX=0;entryY=0.5;entryDx=0;entryDy=0;entryPerimeter=0;endArrow=none;endFill=0;strokeWidth=4;fontFamily=Gowun Dodum;fontColor=#009900;fontSource=https%3A%2F%2Ffonts.googleapis.com%2Fcss%3Ffamily%3DGowun%2BDodum;" parent="h7Kx-A2-XrqdJ_c94fxc-1" source="h7Kx-A2-XrqdJ_c94fxc-28" target="h7Kx-A2-XrqdJ_c94fxc-47" edge="1">
          <mxGeometry relative="1" as="geometry" />
        </mxCell>
        <mxCell id="h7Kx-A2-XrqdJ_c94fxc-28" value="" style="verticalLabelPosition=bottom;verticalAlign=top;html=1;strokeWidth=4;shape=mxgraph.flowchart.on-page_reference;plain-purple;gradientColor=none;strokeColor=#000000;fillColor=#D5E8D4;fontFamily=Gowun Dodum;fontSource=https%3A%2F%2Ffonts.googleapis.com%2Fcss%3Ffamily%3DGowun%2BDodum;" parent="h7Kx-A2-XrqdJ_c94fxc-1" vertex="1">
          <mxGeometry x="696.75" y="361" width="30" height="30" as="geometry" />
        </mxCell>
        <mxCell id="h7Kx-A2-XrqdJ_c94fxc-29" value="develop" style="text;html=1;strokeColor=none;fillColor=none;align=left;verticalAlign=middle;whiteSpace=wrap;overflow=hidden;fontSize=14;fontStyle=1;fontFamily=Gowun Dodum;fontSource=https%3A%2F%2Ffonts.googleapis.com%2Fcss%3Ffamily%3DGowun%2BDodum;" parent="h7Kx-A2-XrqdJ_c94fxc-1" vertex="1">
          <mxGeometry x="87.75" y="364" width="91" height="20" as="geometry" />
        </mxCell>
        <mxCell id="h7Kx-A2-XrqdJ_c94fxc-30" value="" style="edgeStyle=orthogonalEdgeStyle;rounded=0;orthogonalLoop=1;jettySize=auto;html=1;endArrow=none;endFill=0;strokeWidth=4;fontFamily=Gowun Dodum;fontSource=https%3A%2F%2Ffonts.googleapis.com%2Fcss%3Ffamily%3DGowun%2BDodum;" parent="h7Kx-A2-XrqdJ_c94fxc-1" source="h7Kx-A2-XrqdJ_c94fxc-31" target="h7Kx-A2-XrqdJ_c94fxc-33" edge="1">
          <mxGeometry relative="1" as="geometry" />
        </mxCell>
        <mxCell id="h7Kx-A2-XrqdJ_c94fxc-31" value="" style="verticalLabelPosition=bottom;verticalAlign=top;html=1;strokeWidth=4;shape=mxgraph.flowchart.on-page_reference;plain-purple;gradientColor=none;strokeColor=#000000;fillColor=#D5E8D4;fontFamily=Gowun Dodum;fontSource=https%3A%2F%2Ffonts.googleapis.com%2Fcss%3Ffamily%3DGowun%2BDodum;" parent="h7Kx-A2-XrqdJ_c94fxc-1" vertex="1">
          <mxGeometry x="500.75" y="440" width="30" height="30" as="geometry" />
        </mxCell>
        <mxCell id="h7Kx-A2-XrqdJ_c94fxc-32" style="edgeStyle=orthogonalEdgeStyle;curved=1;rounded=0;orthogonalLoop=1;jettySize=auto;html=1;exitX=1;exitY=0.5;exitDx=0;exitDy=0;exitPerimeter=0;entryX=0;entryY=0.5;entryDx=0;entryDy=0;entryPerimeter=0;endArrow=none;endFill=0;strokeWidth=4;fontFamily=Gowun Dodum;fontColor=#009900;fontSource=https%3A%2F%2Ffonts.googleapis.com%2Fcss%3Ffamily%3DGowun%2BDodum;" parent="h7Kx-A2-XrqdJ_c94fxc-1" source="h7Kx-A2-XrqdJ_c94fxc-33" target="h7Kx-A2-XrqdJ_c94fxc-28" edge="1">
          <mxGeometry relative="1" as="geometry" />
        </mxCell>
        <mxCell id="h7Kx-A2-XrqdJ_c94fxc-33" value="" style="verticalLabelPosition=bottom;verticalAlign=top;html=1;strokeWidth=4;shape=mxgraph.flowchart.on-page_reference;plain-purple;gradientColor=none;strokeColor=#000000;fillColor=#D5E8D4;fontFamily=Gowun Dodum;fontSource=https%3A%2F%2Ffonts.googleapis.com%2Fcss%3Ffamily%3DGowun%2BDodum;" parent="h7Kx-A2-XrqdJ_c94fxc-1" vertex="1">
          <mxGeometry x="611.75" y="440" width="30" height="30" as="geometry" />
        </mxCell>
        <mxCell id="h7Kx-A2-XrqdJ_c94fxc-34" value="JIRA-35--example feature" style="text;html=1;strokeColor=none;fillColor=none;align=left;verticalAlign=middle;whiteSpace=wrap;overflow=hidden;fontSize=14;fontStyle=1;fontFamily=Gowun Dodum;fontSource=https%3A%2F%2Ffonts.googleapis.com%2Fcss%3Ffamily%3DGowun%2BDodum;" parent="h7Kx-A2-XrqdJ_c94fxc-1" vertex="1">
          <mxGeometry x="87.5" y="445" width="240" height="20" as="geometry" />
        </mxCell>
        <mxCell id="h7Kx-A2-XrqdJ_c94fxc-35" value="The development or sprint branch" style="text;html=1;strokeColor=none;fillColor=none;align=left;verticalAlign=middle;whiteSpace=wrap;overflow=hidden;fontSize=14;fontStyle=0;fontColor=#009900;fontFamily=Gowun Dodum;fontSource=https%3A%2F%2Ffonts.googleapis.com%2Fcss%3Ffamily%3DGowun%2BDodum;" parent="h7Kx-A2-XrqdJ_c94fxc-1" vertex="1">
          <mxGeometry x="85.75" y="384" width="240" height="20" as="geometry" />
        </mxCell>
        <mxCell id="h7Kx-A2-XrqdJ_c94fxc-36" value="Your feature branch" style="text;html=1;strokeColor=none;fillColor=none;align=left;verticalAlign=middle;whiteSpace=wrap;overflow=hidden;fontSize=14;fontStyle=0;fontColor=#009900;fontFamily=Gowun Dodum;fontSource=https%3A%2F%2Ffonts.googleapis.com%2Fcss%3Ffamily%3DGowun%2BDodum;" parent="h7Kx-A2-XrqdJ_c94fxc-1" vertex="1">
          <mxGeometry x="85.75" y="465" width="240" height="20" as="geometry" />
        </mxCell>
        <mxCell id="h7Kx-A2-XrqdJ_c94fxc-37" value="The release branch" style="text;html=1;strokeColor=none;fillColor=none;align=left;verticalAlign=middle;whiteSpace=wrap;overflow=hidden;fontSize=14;fontStyle=0;fontColor=#009900;fontFamily=Gowun Dodum;fontSource=https%3A%2F%2Ffonts.googleapis.com%2Fcss%3Ffamily%3DGowun%2BDodum;" parent="h7Kx-A2-XrqdJ_c94fxc-1" vertex="1">
          <mxGeometry x="86.75" y="306" width="240" height="20" as="geometry" />
        </mxCell>
        <mxCell id="h7Kx-A2-XrqdJ_c94fxc-38" value="The main branch&lt;br&gt;" style="text;html=1;strokeColor=none;fillColor=none;align=left;verticalAlign=middle;whiteSpace=wrap;overflow=hidden;fontSize=14;fontStyle=0;fontColor=#009900;fontFamily=Gowun Dodum;fontSource=https%3A%2F%2Ffonts.googleapis.com%2Fcss%3Ffamily%3DGowun%2BDodum;" parent="h7Kx-A2-XrqdJ_c94fxc-1" vertex="1">
          <mxGeometry x="88.25" y="220" width="146.75" height="20" as="geometry" />
        </mxCell>
        <mxCell id="h7Kx-A2-XrqdJ_c94fxc-39" value="" style="endArrow=classic;html=1;strokeWidth=1;fontFamily=Gowun Dodum;fontColor=#009900;fontSource=https%3A%2F%2Ffonts.googleapis.com%2Fcss%3Ffamily%3DGowun%2BDodum;" parent="h7Kx-A2-XrqdJ_c94fxc-1" edge="1">
          <mxGeometry width="50" height="50" relative="1" as="geometry">
            <mxPoint x="306.75" y="454.5" as="sourcePoint" />
            <mxPoint x="456.75" y="455" as="targetPoint" />
          </mxGeometry>
        </mxCell>
        <mxCell id="h7Kx-A2-XrqdJ_c94fxc-40" value="" style="endArrow=classic;html=1;strokeWidth=1;fontFamily=Gowun Dodum;fontColor=#009900;fontSource=https%3A%2F%2Ffonts.googleapis.com%2Fcss%3Ffamily%3DGowun%2BDodum;" parent="h7Kx-A2-XrqdJ_c94fxc-1" edge="1">
          <mxGeometry width="50" height="50" relative="1" as="geometry">
            <mxPoint x="186.75" y="374" as="sourcePoint" />
            <mxPoint x="376.75" y="374" as="targetPoint" />
          </mxGeometry>
        </mxCell>
        <mxCell id="h7Kx-A2-XrqdJ_c94fxc-41" value="" style="endArrow=classic;html=1;strokeWidth=1;fontFamily=Gowun Dodum;fontColor=#009900;fontSource=https%3A%2F%2Ffonts.googleapis.com%2Fcss%3Ffamily%3DGowun%2BDodum;" parent="h7Kx-A2-XrqdJ_c94fxc-1" edge="1">
          <mxGeometry width="50" height="50" relative="1" as="geometry">
            <mxPoint x="216.75" y="296" as="sourcePoint" />
            <mxPoint x="296.75" y="296" as="targetPoint" />
          </mxGeometry>
        </mxCell>
        <mxCell id="h7Kx-A2-XrqdJ_c94fxc-42" value="Tag: 1.1.0" style="text;html=1;strokeColor=none;fillColor=none;align=center;verticalAlign=middle;whiteSpace=wrap;overflow=hidden;fontSize=14;fontFamily=Gowun Dodum;fontSource=https%3A%2F%2Ffonts.googleapis.com%2Fcss%3Ffamily%3DGowun%2BDodum;" parent="h7Kx-A2-XrqdJ_c94fxc-1" vertex="1">
          <mxGeometry x="590.25" y="170" width="110" height="20" as="geometry" />
        </mxCell>
        <mxCell id="h7Kx-A2-XrqdJ_c94fxc-43" value="Tag: 1.0.0" style="text;html=1;strokeColor=none;fillColor=none;align=center;verticalAlign=middle;whiteSpace=wrap;overflow=hidden;fontSize=14;fontFamily=Gowun Dodum;fontSource=https%3A%2F%2Ffonts.googleapis.com%2Fcss%3Ffamily%3DGowun%2BDodum;" parent="h7Kx-A2-XrqdJ_c94fxc-1" vertex="1">
          <mxGeometry x="242.25" y="170" width="70" height="20" as="geometry" />
        </mxCell>
        <mxCell id="h7Kx-A2-XrqdJ_c94fxc-44" value="" style="edgeStyle=orthogonalEdgeStyle;curved=1;rounded=0;orthogonalLoop=1;jettySize=auto;html=1;endArrow=none;endFill=0;strokeWidth=4;fontFamily=Gowun Dodum;fontColor=#009900;fontSource=https%3A%2F%2Ffonts.googleapis.com%2Fcss%3Ffamily%3DGowun%2BDodum;" parent="h7Kx-A2-XrqdJ_c94fxc-1" source="h7Kx-A2-XrqdJ_c94fxc-45" target="h7Kx-A2-XrqdJ_c94fxc-47" edge="1">
          <mxGeometry relative="1" as="geometry" />
        </mxCell>
        <mxCell id="h7Kx-A2-XrqdJ_c94fxc-45" value="" style="verticalLabelPosition=bottom;verticalAlign=top;html=1;strokeWidth=4;shape=mxgraph.flowchart.on-page_reference;plain-purple;gradientColor=none;strokeColor=#000000;fillColor=#D5E8D4;fontFamily=Gowun Dodum;fontSource=https%3A%2F%2Ffonts.googleapis.com%2Fcss%3Ffamily%3DGowun%2BDodum;" parent="h7Kx-A2-XrqdJ_c94fxc-1" vertex="1">
          <mxGeometry x="696.75" y="281" width="30" height="30" as="geometry" />
        </mxCell>
        <mxCell id="h7Kx-A2-XrqdJ_c94fxc-46" style="edgeStyle=orthogonalEdgeStyle;curved=1;rounded=0;orthogonalLoop=1;jettySize=auto;html=1;entryX=0;entryY=0.5;entryDx=0;entryDy=0;entryPerimeter=0;endArrow=none;endFill=0;strokeWidth=4;fontFamily=Gowun Dodum;fontColor=#009900;fontSource=https%3A%2F%2Ffonts.googleapis.com%2Fcss%3Ffamily%3DGowun%2BDodum;" parent="h7Kx-A2-XrqdJ_c94fxc-1" source="h7Kx-A2-XrqdJ_c94fxc-47" target="h7Kx-A2-XrqdJ_c94fxc-9" edge="1">
          <mxGeometry relative="1" as="geometry" />
        </mxCell>
        <mxCell id="h7Kx-A2-XrqdJ_c94fxc-47" value="" style="verticalLabelPosition=bottom;verticalAlign=top;html=1;strokeWidth=4;shape=mxgraph.flowchart.on-page_reference;plain-purple;gradientColor=none;strokeColor=#000000;fillColor=#D5E8D4;fontFamily=Gowun Dodum;fontSource=https%3A%2F%2Ffonts.googleapis.com%2Fcss%3Ffamily%3DGowun%2BDodum;" parent="h7Kx-A2-XrqdJ_c94fxc-1" vertex="1">
          <mxGeometry x="786.75" y="281" width="30" height="30" as="geometry" />
        </mxCell>
        <mxCell id="h7Kx-A2-XrqdJ_c94fxc-48" value="Tag: 1.2.0" style="text;html=1;strokeColor=none;fillColor=none;align=center;verticalAlign=middle;whiteSpace=wrap;overflow=hidden;fontSize=14;fontFamily=Gowun Dodum;fontSource=https%3A%2F%2Ffonts.googleapis.com%2Fcss%3Ffamily%3DGowun%2BDodum;" parent="h7Kx-A2-XrqdJ_c94fxc-1" vertex="1">
          <mxGeometry x="812.25" y="168" width="110" height="20" as="geometry" />
        </mxCell>
        <mxCell id="h7Kx-A2-XrqdJ_c94fxc-49" value="" style="endArrow=classic;html=1;strokeWidth=1;fontFamily=Gowun Dodum;fontColor=#009900;exitX=0.5;exitY=0;exitDx=0;exitDy=0;fontSource=https%3A%2F%2Ffonts.googleapis.com%2Fcss%3Ffamily%3DGowun%2BDodum;" parent="h7Kx-A2-XrqdJ_c94fxc-1" source="h7Kx-A2-XrqdJ_c94fxc-52" edge="1">
          <mxGeometry width="50" height="50" relative="1" as="geometry">
            <mxPoint x="711.25" y="635.5" as="sourcePoint" />
            <mxPoint x="711.25" y="404" as="targetPoint" />
          </mxGeometry>
        </mxCell>
        <mxCell id="h7Kx-A2-XrqdJ_c94fxc-50" value="" style="endArrow=classic;html=1;strokeWidth=1;fontFamily=Gowun Dodum;fontColor=#009900;fontSource=https%3A%2F%2Ffonts.googleapis.com%2Fcss%3Ffamily%3DGowun%2BDodum;" parent="h7Kx-A2-XrqdJ_c94fxc-1" edge="1">
          <mxGeometry width="50" height="50" relative="1" as="geometry">
            <mxPoint x="801.75" y="375" as="sourcePoint" />
            <mxPoint x="801.75" y="325" as="targetPoint" />
          </mxGeometry>
        </mxCell>
        <mxCell id="h7Kx-A2-XrqdJ_c94fxc-51" value="&lt;span style=&quot;text-align: center&quot;&gt;Feel free to add notes here about the process of merging into the release branch.&lt;br&gt;&lt;/span&gt;" style="text;html=1;strokeColor=none;fillColor=none;align=left;verticalAlign=middle;whiteSpace=wrap;overflow=hidden;fontSize=12;fontStyle=0;fontColor=#000000;fontFamily=Gowun Dodum;fontSource=https%3A%2F%2Ffonts.googleapis.com%2Fcss%3Ffamily%3DGowun%2BDodum;" parent="h7Kx-A2-XrqdJ_c94fxc-1" vertex="1">
          <mxGeometry x="776.75" y="375" width="163.25" height="66" as="geometry" />
        </mxCell>
        <mxCell id="h7Kx-A2-XrqdJ_c94fxc-52" value="&lt;div style=&quot;&quot;&gt;&lt;span&gt;Feel free to add notes here about the process of merging feature branches.&lt;/span&gt;&lt;/div&gt;" style="text;html=1;strokeColor=none;fillColor=none;align=left;verticalAlign=middle;whiteSpace=wrap;overflow=hidden;fontSize=12;fontStyle=0;fontColor=#000000;fontFamily=Gowun Dodum;fontSource=https%3A%2F%2Ffonts.googleapis.com%2Fcss%3Ffamily%3DGowun%2BDodum;" parent="h7Kx-A2-XrqdJ_c94fxc-1" vertex="1">
          <mxGeometry x="502.63" y="485" width="418.25" height="36" as="geometry" />
        </mxCell>
        <mxCell id="h7Kx-A2-XrqdJ_c94fxc-53" value="" style="edgeStyle=orthogonalEdgeStyle;rounded=0;orthogonalLoop=1;jettySize=auto;html=1;fontSize=12;fontColor=#000000;entryX=0;entryY=0.5;entryDx=0;entryDy=0;fontFamily=Gowun Dodum;fontSource=https%3A%2F%2Ffonts.googleapis.com%2Fcss%3Ffamily%3DGowun%2BDodum;" parent="h7Kx-A2-XrqdJ_c94fxc-1" source="h7Kx-A2-XrqdJ_c94fxc-54" target="h7Kx-A2-XrqdJ_c94fxc-43" edge="1">
          <mxGeometry relative="1" as="geometry">
            <mxPoint x="222.25" y="180" as="targetPoint" />
            <Array as="points">
              <mxPoint x="222.25" y="180" />
              <mxPoint x="222.25" y="180" />
            </Array>
          </mxGeometry>
        </mxCell>
        <mxCell id="h7Kx-A2-XrqdJ_c94fxc-54" value="&lt;span style=&quot;text-align: center; font-size: 11px;&quot;&gt;Each tag represents a production release.&lt;/span&gt;" style="text;html=1;strokeColor=none;fillColor=none;align=left;verticalAlign=middle;whiteSpace=wrap;overflow=hidden;fontSize=11;fontStyle=0;fontColor=#000000;fontFamily=Gowun Dodum;fontSource=https%3A%2F%2Ffonts.googleapis.com%2Fcss%3Ffamily%3DGowun%2BDodum;" parent="h7Kx-A2-XrqdJ_c94fxc-1" vertex="1">
          <mxGeometry x="94.5" y="158" width="120" height="38" as="geometry" />
        </mxCell>
        <mxCell id="h7Kx-A2-XrqdJ_c94fxc-55" value="Example Git Branching Diagrams" style="text;html=1;strokeColor=none;fillColor=none;align=center;verticalAlign=middle;whiteSpace=wrap;rounded=0;fontSize=33;fontColor=#000000;fontFamily=Gowun Dodum;fontSource=https%3A%2F%2Ffonts.googleapis.com%2Fcss%3Ffamily%3DGowun%2BDodum;" parent="h7Kx-A2-XrqdJ_c94fxc-1" vertex="1">
          <mxGeometry x="281" y="20" width="538" height="40" as="geometry" />
        </mxCell>
        <UserObject label="Example diagram for a workflow similar to &quot;Git-flow&quot; :" link="https://nvie.com/posts/a-successful-git-branching-model/" id="h7Kx-A2-XrqdJ_c94fxc-56">
          <mxCell style="text;whiteSpace=wrap;html=1;fontStyle=1;fontSize=16;fontFamily=Gowun Dodum;fontSource=https%3A%2F%2Ffonts.googleapis.com%2Fcss%3Ffamily%3DGowun%2BDodum;" parent="h7Kx-A2-XrqdJ_c94fxc-1" vertex="1">
            <mxGeometry x="82.25" y="90" width="427.75" height="20" as="geometry" />
          </mxCell>
        </UserObject>
        <UserObject label="&lt;a href=&quot;https://nvie.com/posts/a-successful-git-branching-model/&quot;&gt;https://nvie.com/posts/a-successful-git-branching-model/&lt;/a&gt;" link="https://nvie.com/posts/a-successful-git-branching-model/" id="h7Kx-A2-XrqdJ_c94fxc-57">
          <mxCell style="text;whiteSpace=wrap;html=1;fontFamily=Gowun Dodum;fontSource=https%3A%2F%2Ffonts.googleapis.com%2Fcss%3Ffamily%3DGowun%2BDodum;" parent="h7Kx-A2-XrqdJ_c94fxc-1" vertex="1">
            <mxGeometry x="115" y="115" width="355" height="20" as="geometry" />
          </mxCell>
        </UserObject>
        <UserObject label="Example diagram for a workflow with a simpler branching model:" link="https://nvie.com/posts/a-successful-git-branching-model/" id="h7Kx-A2-XrqdJ_c94fxc-58">
          <mxCell style="text;whiteSpace=wrap;html=1;fontStyle=1;fontSize=17;fontFamily=Gowun Dodum;fontSource=https%3A%2F%2Ffonts.googleapis.com%2Fcss%3Ffamily%3DGowun%2BDodum;" parent="h7Kx-A2-XrqdJ_c94fxc-1" vertex="1">
            <mxGeometry x="80" y="580" width="542.25" height="30" as="geometry" />
          </mxCell>
        </UserObject>
        <UserObject label="See:" link="https://nvie.com/posts/a-successful-git-branching-model/" id="h7Kx-A2-XrqdJ_c94fxc-59">
          <mxCell style="text;whiteSpace=wrap;html=1;fontFamily=Gowun Dodum;fontSource=https%3A%2F%2Ffonts.googleapis.com%2Fcss%3Ffamily%3DGowun%2BDodum;" parent="h7Kx-A2-XrqdJ_c94fxc-1" vertex="1">
            <mxGeometry x="82.25" y="115" width="32.75" height="20" as="geometry" />
          </mxCell>
        </UserObject>
        <UserObject label="&lt;a href=&quot;https://gist.github.com/jbenet/ee6c9ac48068889b0912&quot;&gt;https://gist.github.com/jbenet/ee6c9ac48068889b0912&lt;/a&gt;" link="https://gist.github.com/jbenet/ee6c9ac48068889b0912" id="h7Kx-A2-XrqdJ_c94fxc-60">
          <mxCell style="text;whiteSpace=wrap;html=1;fontFamily=Gowun Dodum;fontSource=https%3A%2F%2Ffonts.googleapis.com%2Fcss%3Ffamily%3DGowun%2BDodum;" parent="h7Kx-A2-XrqdJ_c94fxc-1" vertex="1">
            <mxGeometry x="114.25" y="610" width="298" height="20" as="geometry" />
          </mxCell>
        </UserObject>
        <UserObject label="See:" link="https://nvie.com/posts/a-successful-git-branching-model/" id="h7Kx-A2-XrqdJ_c94fxc-61">
          <mxCell style="text;whiteSpace=wrap;html=1;fontFamily=Gowun Dodum;fontSource=https%3A%2F%2Ffonts.googleapis.com%2Fcss%3Ffamily%3DGowun%2BDodum;" parent="h7Kx-A2-XrqdJ_c94fxc-1" vertex="1">
            <mxGeometry x="81.5" y="610" width="32.75" height="20" as="geometry" />
          </mxCell>
        </UserObject>
        <mxCell id="h7Kx-A2-XrqdJ_c94fxc-62" value="" style="endArrow=classic;html=1;strokeWidth=1;fontFamily=Gowun Dodum;fontColor=#009900;fontSource=https%3A%2F%2Ffonts.googleapis.com%2Fcss%3Ffamily%3DGowun%2BDodum;" parent="h7Kx-A2-XrqdJ_c94fxc-1" edge="1">
          <mxGeometry width="50" height="50" relative="1" as="geometry">
            <mxPoint x="877.25" y="280" as="sourcePoint" />
            <mxPoint x="877.25" y="240" as="targetPoint" />
          </mxGeometry>
        </mxCell>
        <mxCell id="h7Kx-A2-XrqdJ_c94fxc-63" value="&lt;span style=&quot;text-align: center&quot;&gt;Feel free to add notes here about the process of merging into the release branch.&lt;br&gt;&lt;br&gt;&lt;/span&gt;" style="text;html=1;strokeColor=none;fillColor=none;align=left;verticalAlign=middle;whiteSpace=wrap;overflow=hidden;fontSize=12;fontStyle=0;fontColor=#000000;fontFamily=Gowun Dodum;fontSource=https%3A%2F%2Ffonts.googleapis.com%2Fcss%3Ffamily%3DGowun%2BDodum;" parent="h7Kx-A2-XrqdJ_c94fxc-1" vertex="1">
          <mxGeometry x="852.25" y="281" width="167.75" height="81" as="geometry" />
        </mxCell>
        <mxCell id="h7Kx-A2-XrqdJ_c94fxc-64" value="" style="edgeStyle=orthogonalEdgeStyle;rounded=0;orthogonalLoop=1;jettySize=auto;html=1;fontSize=15;endArrow=none;endFill=0;strokeWidth=4;entryX=0;entryY=0.5;entryDx=0;entryDy=0;entryPerimeter=0;fontFamily=Gowun Dodum;fontSource=https%3A%2F%2Ffonts.googleapis.com%2Fcss%3Ffamily%3DGowun%2BDodum;" parent="h7Kx-A2-XrqdJ_c94fxc-1" source="h7Kx-A2-XrqdJ_c94fxc-65" target="h7Kx-A2-XrqdJ_c94fxc-8" edge="1">
          <mxGeometry relative="1" as="geometry">
            <mxPoint x="560.25" y="211" as="targetPoint" />
          </mxGeometry>
        </mxCell>
        <mxCell id="h7Kx-A2-XrqdJ_c94fxc-65" value="" style="verticalLabelPosition=bottom;verticalAlign=top;html=1;strokeWidth=4;shape=mxgraph.flowchart.on-page_reference;plain-blue;gradientColor=#EA6B66;strokeColor=#B85450;fillColor=#F8CECC;fontFamily=Gowun Dodum;fontSource=https%3A%2F%2Ffonts.googleapis.com%2Fcss%3Ffamily%3DGowun%2BDodum;" parent="h7Kx-A2-XrqdJ_c94fxc-1" vertex="1">
          <mxGeometry x="452.25" y="196" width="30" height="30" as="geometry" />
        </mxCell>
        <mxCell id="h7Kx-A2-XrqdJ_c94fxc-66" value="" style="edgeStyle=orthogonalEdgeStyle;rounded=0;html=1;jettySize=auto;orthogonalLoop=1;plain-blue;endArrow=none;endFill=0;strokeWidth=4;strokeColor=#000000;fontFamily=Gowun Dodum;fontSource=https%3A%2F%2Ffonts.googleapis.com%2Fcss%3Ffamily%3DGowun%2BDodum;" parent="h7Kx-A2-XrqdJ_c94fxc-1" source="h7Kx-A2-XrqdJ_c94fxc-68" target="h7Kx-A2-XrqdJ_c94fxc-70" edge="1">
          <mxGeometry x="294.5" y="700" as="geometry" />
        </mxCell>
        <mxCell id="h7Kx-A2-XrqdJ_c94fxc-67" style="edgeStyle=orthogonalEdgeStyle;curved=1;rounded=0;html=1;exitX=1;exitY=0.5;exitPerimeter=0;entryX=0;entryY=0.5;entryPerimeter=0;endArrow=none;endFill=0;jettySize=auto;orthogonalLoop=1;strokeWidth=4;fontSize=15;fontFamily=Gowun Dodum;fontSource=https%3A%2F%2Ffonts.googleapis.com%2Fcss%3Ffamily%3DGowun%2BDodum;" parent="h7Kx-A2-XrqdJ_c94fxc-1" source="h7Kx-A2-XrqdJ_c94fxc-68" target="h7Kx-A2-XrqdJ_c94fxc-80" edge="1">
          <mxGeometry relative="1" as="geometry" />
        </mxCell>
        <mxCell id="h7Kx-A2-XrqdJ_c94fxc-68" value="" style="verticalLabelPosition=bottom;verticalAlign=top;html=1;strokeWidth=4;shape=mxgraph.flowchart.on-page_reference;plain-blue;gradientColor=none;fillColor=#B5E3Fe;strokeColor=#000000;fontFamily=Gowun Dodum;fontSource=https%3A%2F%2Ffonts.googleapis.com%2Fcss%3Ffamily%3DGowun%2BDodum;" parent="h7Kx-A2-XrqdJ_c94fxc-1" vertex="1">
          <mxGeometry x="264.5" y="685" width="30" height="30" as="geometry" />
        </mxCell>
        <mxCell id="h7Kx-A2-XrqdJ_c94fxc-69" value="" style="edgeStyle=orthogonalEdgeStyle;curved=1;rounded=0;orthogonalLoop=1;jettySize=auto;html=1;endArrow=none;endFill=0;strokeWidth=4;fontFamily=Gowun Dodum;fontSize=16;fontSource=https%3A%2F%2Ffonts.googleapis.com%2Fcss%3Ffamily%3DGowun%2BDodum;" parent="h7Kx-A2-XrqdJ_c94fxc-1" source="h7Kx-A2-XrqdJ_c94fxc-70" target="h7Kx-A2-XrqdJ_c94fxc-73" edge="1">
          <mxGeometry relative="1" as="geometry" />
        </mxCell>
        <mxCell id="h7Kx-A2-XrqdJ_c94fxc-70" value="" style="verticalLabelPosition=bottom;verticalAlign=top;html=1;strokeWidth=4;shape=mxgraph.flowchart.on-page_reference;plain-blue;gradientColor=none;strokeColor=#000000;fontFamily=Gowun Dodum;fontSource=https%3A%2F%2Ffonts.googleapis.com%2Fcss%3Ffamily%3DGowun%2BDodum;" parent="h7Kx-A2-XrqdJ_c94fxc-1" vertex="1">
          <mxGeometry x="554.5" y="685" width="30" height="30" as="geometry" />
        </mxCell>
        <mxCell id="h7Kx-A2-XrqdJ_c94fxc-71" value="" style="edgeStyle=orthogonalEdgeStyle;curved=1;rounded=0;orthogonalLoop=1;jettySize=auto;html=1;endArrow=none;endFill=0;strokeWidth=4;fontFamily=Gowun Dodum;fontSize=16;fontSource=https%3A%2F%2Ffonts.googleapis.com%2Fcss%3Ffamily%3DGowun%2BDodum;" parent="h7Kx-A2-XrqdJ_c94fxc-1" source="h7Kx-A2-XrqdJ_c94fxc-73" target="h7Kx-A2-XrqdJ_c94fxc-75" edge="1">
          <mxGeometry relative="1" as="geometry" />
        </mxCell>
        <mxCell id="h7Kx-A2-XrqdJ_c94fxc-72" value="" style="edgeStyle=orthogonalEdgeStyle;curved=1;rounded=0;orthogonalLoop=1;jettySize=auto;html=1;endArrow=none;endFill=0;strokeWidth=4;fontFamily=Gowun Dodum;fontSize=16;entryX=0;entryY=0.5;entryDx=0;entryDy=0;entryPerimeter=0;fontSource=https%3A%2F%2Ffonts.googleapis.com%2Fcss%3Ffamily%3DGowun%2BDodum;" parent="h7Kx-A2-XrqdJ_c94fxc-1" source="h7Kx-A2-XrqdJ_c94fxc-73" target="h7Kx-A2-XrqdJ_c94fxc-93" edge="1">
          <mxGeometry relative="1" as="geometry">
            <mxPoint x="679.5" y="795" as="targetPoint" />
          </mxGeometry>
        </mxCell>
        <mxCell id="h7Kx-A2-XrqdJ_c94fxc-73" value="" style="verticalLabelPosition=bottom;verticalAlign=top;html=1;strokeWidth=4;shape=mxgraph.flowchart.on-page_reference;plain-blue;gradientColor=none;strokeColor=#000000;fontFamily=Gowun Dodum;fontSource=https%3A%2F%2Ffonts.googleapis.com%2Fcss%3Ffamily%3DGowun%2BDodum;" parent="h7Kx-A2-XrqdJ_c94fxc-1" vertex="1">
          <mxGeometry x="670" y="685" width="30" height="30" as="geometry" />
        </mxCell>
        <mxCell id="h7Kx-A2-XrqdJ_c94fxc-74" value="" style="edgeStyle=orthogonalEdgeStyle;curved=1;rounded=0;orthogonalLoop=1;jettySize=auto;html=1;endArrow=none;endFill=0;strokeWidth=4;fontFamily=Gowun Dodum;fontSize=16;fontSource=https%3A%2F%2Ffonts.googleapis.com%2Fcss%3Ffamily%3DGowun%2BDodum;" parent="h7Kx-A2-XrqdJ_c94fxc-1" source="h7Kx-A2-XrqdJ_c94fxc-75" target="h7Kx-A2-XrqdJ_c94fxc-76" edge="1">
          <mxGeometry relative="1" as="geometry" />
        </mxCell>
        <mxCell id="h7Kx-A2-XrqdJ_c94fxc-75" value="" style="verticalLabelPosition=bottom;verticalAlign=top;html=1;strokeWidth=4;shape=mxgraph.flowchart.on-page_reference;plain-blue;gradientColor=none;strokeColor=#000000;fontFamily=Gowun Dodum;fontSource=https%3A%2F%2Ffonts.googleapis.com%2Fcss%3Ffamily%3DGowun%2BDodum;" parent="h7Kx-A2-XrqdJ_c94fxc-1" vertex="1">
          <mxGeometry x="769" y="685" width="30" height="30" as="geometry" />
        </mxCell>
        <mxCell id="h7Kx-A2-XrqdJ_c94fxc-76" value="" style="verticalLabelPosition=bottom;verticalAlign=top;html=1;strokeWidth=4;shape=mxgraph.flowchart.on-page_reference;plain-blue;gradientColor=none;strokeColor=#000000;fontFamily=Gowun Dodum;fontSource=https%3A%2F%2Ffonts.googleapis.com%2Fcss%3Ffamily%3DGowun%2BDodum;" parent="h7Kx-A2-XrqdJ_c94fxc-1" vertex="1">
          <mxGeometry x="861.25" y="685" width="30" height="30" as="geometry" />
        </mxCell>
        <mxCell id="h7Kx-A2-XrqdJ_c94fxc-77" value="" style="edgeStyle=orthogonalEdgeStyle;rounded=0;html=1;jettySize=auto;orthogonalLoop=1;strokeWidth=4;endArrow=none;endFill=0;fontFamily=Gowun Dodum;fontSource=https%3A%2F%2Ffonts.googleapis.com%2Fcss%3Ffamily%3DGowun%2BDodum;" parent="h7Kx-A2-XrqdJ_c94fxc-1" target="h7Kx-A2-XrqdJ_c94fxc-68" edge="1">
          <mxGeometry x="194.5" y="700" as="geometry">
            <mxPoint x="150" y="700" as="sourcePoint" />
          </mxGeometry>
        </mxCell>
        <mxCell id="h7Kx-A2-XrqdJ_c94fxc-78" value="main" style="text;html=1;strokeColor=none;fillColor=none;align=center;verticalAlign=middle;whiteSpace=wrap;overflow=hidden;fontSize=14;fontStyle=1;fontFamily=Gowun Dodum;fontSource=https%3A%2F%2Ffonts.googleapis.com%2Fcss%3Ffamily%3DGowun%2BDodum;" parent="h7Kx-A2-XrqdJ_c94fxc-1" vertex="1">
          <mxGeometry x="80" y="690" width="50" height="20" as="geometry" />
        </mxCell>
        <mxCell id="h7Kx-A2-XrqdJ_c94fxc-79" style="edgeStyle=orthogonalEdgeStyle;curved=1;rounded=0;html=1;exitX=1;exitY=0.5;exitPerimeter=0;entryX=0;entryY=0.5;entryPerimeter=0;endArrow=none;endFill=0;jettySize=auto;orthogonalLoop=1;strokeWidth=4;fontSize=15;fontFamily=Gowun Dodum;fontSource=https%3A%2F%2Ffonts.googleapis.com%2Fcss%3Ffamily%3DGowun%2BDodum;" parent="h7Kx-A2-XrqdJ_c94fxc-1" source="h7Kx-A2-XrqdJ_c94fxc-80" target="h7Kx-A2-XrqdJ_c94fxc-82" edge="1">
          <mxGeometry relative="1" as="geometry" />
        </mxCell>
        <mxCell id="h7Kx-A2-XrqdJ_c94fxc-80" value="" style="verticalLabelPosition=bottom;verticalAlign=top;html=1;strokeWidth=4;shape=mxgraph.flowchart.on-page_reference;plain-purple;gradientColor=none;strokeColor=#000000;fontFamily=Gowun Dodum;fontSource=https%3A%2F%2Ffonts.googleapis.com%2Fcss%3Ffamily%3DGowun%2BDodum;" parent="h7Kx-A2-XrqdJ_c94fxc-1" vertex="1">
          <mxGeometry x="337.5" y="765" width="30" height="30" as="geometry" />
        </mxCell>
        <mxCell id="h7Kx-A2-XrqdJ_c94fxc-81" style="edgeStyle=orthogonalEdgeStyle;curved=1;rounded=0;html=1;exitX=1;exitY=0.5;exitPerimeter=0;entryX=0;entryY=0.5;entryPerimeter=0;endArrow=none;endFill=0;jettySize=auto;orthogonalLoop=1;strokeWidth=4;fontSize=15;fontFamily=Gowun Dodum;fontSource=https%3A%2F%2Ffonts.googleapis.com%2Fcss%3Ffamily%3DGowun%2BDodum;" parent="h7Kx-A2-XrqdJ_c94fxc-1" source="h7Kx-A2-XrqdJ_c94fxc-82" target="h7Kx-A2-XrqdJ_c94fxc-84" edge="1">
          <mxGeometry relative="1" as="geometry" />
        </mxCell>
        <mxCell id="h7Kx-A2-XrqdJ_c94fxc-82" value="" style="verticalLabelPosition=bottom;verticalAlign=top;html=1;strokeWidth=4;shape=mxgraph.flowchart.on-page_reference;plain-purple;gradientColor=none;strokeColor=#000000;fontFamily=Gowun Dodum;fontSource=https%3A%2F%2Ffonts.googleapis.com%2Fcss%3Ffamily%3DGowun%2BDodum;" parent="h7Kx-A2-XrqdJ_c94fxc-1" vertex="1">
          <mxGeometry x="409.5" y="765" width="30" height="30" as="geometry" />
        </mxCell>
        <mxCell id="h7Kx-A2-XrqdJ_c94fxc-83" style="edgeStyle=orthogonalEdgeStyle;curved=1;rounded=0;html=1;exitX=1;exitY=0.5;exitPerimeter=0;entryX=0;entryY=0.5;entryPerimeter=0;endArrow=none;endFill=0;jettySize=auto;orthogonalLoop=1;strokeWidth=4;fontSize=15;fontFamily=Gowun Dodum;fontSource=https%3A%2F%2Ffonts.googleapis.com%2Fcss%3Ffamily%3DGowun%2BDodum;" parent="h7Kx-A2-XrqdJ_c94fxc-1" source="h7Kx-A2-XrqdJ_c94fxc-84" target="h7Kx-A2-XrqdJ_c94fxc-70" edge="1">
          <mxGeometry relative="1" as="geometry" />
        </mxCell>
        <mxCell id="h7Kx-A2-XrqdJ_c94fxc-84" value="" style="verticalLabelPosition=bottom;verticalAlign=top;html=1;strokeWidth=4;shape=mxgraph.flowchart.on-page_reference;plain-purple;gradientColor=none;strokeColor=#000000;fontFamily=Gowun Dodum;fontSource=https%3A%2F%2Ffonts.googleapis.com%2Fcss%3Ffamily%3DGowun%2BDodum;" parent="h7Kx-A2-XrqdJ_c94fxc-1" vertex="1">
          <mxGeometry x="482.5" y="765" width="30" height="30" as="geometry" />
        </mxCell>
        <mxCell id="h7Kx-A2-XrqdJ_c94fxc-85" value="JIRA-35--example-feature" style="text;html=1;strokeColor=none;fillColor=none;align=left;verticalAlign=middle;whiteSpace=wrap;overflow=hidden;fontSize=14;fontStyle=1;fontFamily=Gowun Dodum;fontSource=https%3A%2F%2Ffonts.googleapis.com%2Fcss%3Ffamily%3DGowun%2BDodum;" parent="h7Kx-A2-XrqdJ_c94fxc-1" vertex="1">
          <mxGeometry x="87.5" y="770" width="240" height="20" as="geometry" />
        </mxCell>
        <mxCell id="h7Kx-A2-XrqdJ_c94fxc-86" value="The main branch&lt;br&gt;" style="text;html=1;strokeColor=none;fillColor=none;align=left;verticalAlign=middle;whiteSpace=wrap;overflow=hidden;fontSize=14;fontStyle=0;fontColor=#009900;fontFamily=Gowun Dodum;fontSource=https%3A%2F%2Ffonts.googleapis.com%2Fcss%3Ffamily%3DGowun%2BDodum;" parent="h7Kx-A2-XrqdJ_c94fxc-1" vertex="1">
          <mxGeometry x="85.25" y="710" width="132.25" height="20" as="geometry" />
        </mxCell>
        <mxCell id="h7Kx-A2-XrqdJ_c94fxc-87" value="Your feature branch" style="text;html=1;strokeColor=none;fillColor=none;align=left;verticalAlign=middle;whiteSpace=wrap;overflow=hidden;fontSize=14;fontStyle=0;fontColor=#009900;fontFamily=Gowun Dodum;fontSource=https%3A%2F%2Ffonts.googleapis.com%2Fcss%3Ffamily%3DGowun%2BDodum;" parent="h7Kx-A2-XrqdJ_c94fxc-1" vertex="1">
          <mxGeometry x="86.25" y="795" width="202.25" height="20" as="geometry" />
        </mxCell>
        <mxCell id="h7Kx-A2-XrqdJ_c94fxc-88" value="Tag: 1.0.0" style="text;html=1;strokeColor=none;fillColor=none;align=center;verticalAlign=middle;whiteSpace=wrap;overflow=hidden;fontSize=14;fontFamily=Gowun Dodum;fontSource=https%3A%2F%2Ffonts.googleapis.com%2Fcss%3Ffamily%3DGowun%2BDodum;" parent="h7Kx-A2-XrqdJ_c94fxc-1" vertex="1">
          <mxGeometry x="248.38" y="660" width="70" height="20" as="geometry" />
        </mxCell>
        <mxCell id="h7Kx-A2-XrqdJ_c94fxc-89" value="Tag: 1.1.0" style="text;html=1;strokeColor=none;fillColor=none;align=center;verticalAlign=middle;whiteSpace=wrap;overflow=hidden;fontSize=14;fontFamily=Gowun Dodum;fontSource=https%3A%2F%2Ffonts.googleapis.com%2Fcss%3Ffamily%3DGowun%2BDodum;" parent="h7Kx-A2-XrqdJ_c94fxc-1" vertex="1">
          <mxGeometry x="644.5" y="660" width="70" height="20" as="geometry" />
        </mxCell>
        <UserObject label="&lt;a href=&quot;https://www.endoflineblog.com/oneflow-a-git-branching-model-and-workflow&quot;&gt;https://www.endoflineblog.com/oneflow-a-git-branching-model-and-workflow&lt;/a&gt;" link="https://www.endoflineblog.com/oneflow-a-git-branching-model-and-workflow" id="h7Kx-A2-XrqdJ_c94fxc-90">
          <mxCell style="text;whiteSpace=wrap;html=1;fontFamily=Gowun Dodum;fontSource=https%3A%2F%2Ffonts.googleapis.com%2Fcss%3Ffamily%3DGowun%2BDodum;" parent="h7Kx-A2-XrqdJ_c94fxc-1" vertex="1">
            <mxGeometry x="444.5" y="610" width="413.75" height="20" as="geometry" />
          </mxCell>
        </UserObject>
        <UserObject label="or" link="https://nvie.com/posts/a-successful-git-branching-model/" id="h7Kx-A2-XrqdJ_c94fxc-91">
          <mxCell style="text;whiteSpace=wrap;html=1;fontFamily=Gowun Dodum;fontSource=https%3A%2F%2Ffonts.googleapis.com%2Fcss%3Ffamily%3DGowun%2BDodum;" parent="h7Kx-A2-XrqdJ_c94fxc-1" vertex="1">
            <mxGeometry x="420.62" y="610" width="11.63" height="20" as="geometry" />
          </mxCell>
        </UserObject>
        <mxCell id="h7Kx-A2-XrqdJ_c94fxc-92" value="" style="edgeStyle=orthogonalEdgeStyle;curved=1;rounded=0;orthogonalLoop=1;jettySize=auto;html=1;endArrow=none;endFill=0;strokeWidth=4;fontFamily=Gowun Dodum;fontSize=16;entryX=0;entryY=0.5;entryDx=0;entryDy=0;entryPerimeter=0;fontSource=https%3A%2F%2Ffonts.googleapis.com%2Fcss%3Ffamily%3DGowun%2BDodum;" parent="h7Kx-A2-XrqdJ_c94fxc-1" source="h7Kx-A2-XrqdJ_c94fxc-93" target="h7Kx-A2-XrqdJ_c94fxc-76" edge="1">
          <mxGeometry relative="1" as="geometry">
            <mxPoint x="892.25" y="780" as="targetPoint" />
          </mxGeometry>
        </mxCell>
        <mxCell id="h7Kx-A2-XrqdJ_c94fxc-93" value="" style="verticalLabelPosition=bottom;verticalAlign=top;html=1;strokeWidth=4;shape=mxgraph.flowchart.on-page_reference;plain-blue;gradientColor=#EA6B66;strokeColor=#B85450;fillColor=#F8CECC;fontFamily=Gowun Dodum;fontSource=https%3A%2F%2Ffonts.googleapis.com%2Fcss%3Ffamily%3DGowun%2BDodum;" parent="h7Kx-A2-XrqdJ_c94fxc-1" vertex="1">
          <mxGeometry x="769" y="765" width="30" height="30" as="geometry" />
        </mxCell>
        <mxCell id="h7Kx-A2-XrqdJ_c94fxc-94" value="Hotfix Commit" style="text;html=1;strokeColor=none;fillColor=none;align=center;verticalAlign=middle;whiteSpace=wrap;overflow=hidden;fontFamily=Gowun Dodum;fontSource=https%3A%2F%2Ffonts.googleapis.com%2Fcss%3Ffamily%3DGowun%2BDodum;" parent="h7Kx-A2-XrqdJ_c94fxc-1" vertex="1">
          <mxGeometry x="749.5" y="790" width="80" height="30" as="geometry" />
        </mxCell>
        <mxCell id="h7Kx-A2-XrqdJ_c94fxc-95" value="Tag: 1.1.1" style="text;html=1;strokeColor=none;fillColor=none;align=center;verticalAlign=middle;whiteSpace=wrap;overflow=hidden;fontSize=14;fontFamily=Gowun Dodum;fontSource=https%3A%2F%2Ffonts.googleapis.com%2Fcss%3Ffamily%3DGowun%2BDodum;" parent="h7Kx-A2-XrqdJ_c94fxc-1" vertex="1">
          <mxGeometry x="746.75" y="740" width="70" height="20" as="geometry" />
        </mxCell>
        <mxCell id="h7Kx-A2-XrqdJ_c94fxc-96" value="Tag: 1.2.0" style="text;html=1;strokeColor=none;fillColor=none;align=center;verticalAlign=middle;whiteSpace=wrap;overflow=hidden;fontSize=14;fontFamily=Gowun Dodum;fontSource=https%3A%2F%2Ffonts.googleapis.com%2Fcss%3Ffamily%3DGowun%2BDodum;" parent="h7Kx-A2-XrqdJ_c94fxc-1" vertex="1">
          <mxGeometry x="852.25" y="660" width="70" height="20" as="geometry" />
        </mxCell>
        <mxCell id="h7Kx-A2-XrqdJ_c94fxc-97" value="Tag: 1.0.1" style="text;html=1;strokeColor=none;fillColor=none;align=center;verticalAlign=middle;whiteSpace=wrap;overflow=hidden;fontSize=14;fontFamily=Gowun Dodum;fontSource=https%3A%2F%2Ffonts.googleapis.com%2Fcss%3Ffamily%3DGowun%2BDodum;" parent="h7Kx-A2-XrqdJ_c94fxc-1" vertex="1">
          <mxGeometry x="428.5" y="170" width="70" height="20" as="geometry" />
        </mxCell>
      </root>
    </mxGraphModel>
  </diagram>
</mxfile>
